<?xml version="1.0" encoding="utf-8"?>
<!-- Generator: Adobe Illustrator 16.0.4, SVG Export Plug-In . SVG Version: 6.00 Build 0)  -->
<!DOCTYPE svg PUBLIC "-//W3C//DTD SVG 1.1//EN" "http://www.w3.org/Graphics/SVG/1.1/DTD/svg11.dtd">
<svg version="1.1" xmlns="http://www.w3.org/2000/svg" xmlns:xlink="http://www.w3.org/1999/xlink" x="0px" y="0px"
	 width="362.25px" height="341.746px" viewBox="0 0 362.25 341.746" enable-background="new 0 0 362.25 341.746"
	 xml:space="preserve">
<g id="Layer_2" display="none">
	
		<image display="inline" overflow="visible" width="960" height="720" xlink:href="Baby Dragon_0.jpg"  transform="matrix(0.75 0 0 0.75 -226.7573 -90.4639)">
	</image>
</g>
<g id="Layer_1">
	<g>
		<polygon fill="#185E34" points="89.051,56.5 87.08,35.997 98.15,21.879 122.171,8.397 122.959,10.763 105.611,44.395 		"/>
		<path fill="#185E34" d="M197.885,104.9l15.211,14.261l16.638,12.121l7.843,12.597l-2.614,0.713l-15.448-2.614l-31.374-6.893
			C188.14,135.085,190.993,107.277,197.885,104.9z"/>
		<path fill="#185E34" d="M199.549,78.043l28.283-0.476l19.489,4.753l6.417,7.606v4.516l-5.466-0.237l-17.113,1.188l-13.072,7.606
			l-9.507,3.565C208.581,106.564,195.509,88.976,199.549,78.043z"/>
		<path fill="#185E34" d="M190.28,68.062l10.934-18.301l12.597-11.646l10.458-4.278l-2.377-2.614l-9.982-0.476l-27.808,7.13
			l-11.884,6.66C172.217,44.536,185.526,67.824,190.28,68.062z"/>
		<polygon fill="#185E34" points="126.145,38.366 141.086,25.504 154.569,11.442 177.345,3.21 192.286,4.753 190.645,6.983 
			173.7,17.958 164.955,24.132 160.399,38.194 157.483,44.536 		"/>
		<path fill="#185E34" d="M240.598,235.824l21.377-3.365l26.919,7.521l3.562,1.386l-3.397,3.741l-13.064,6.928l-13.822,4.176
			C262.172,256.211,240.004,242.554,240.598,235.824z"/>
		<path fill="#185E34" d="M237.827,212.666l13.658-6.532l23.355-2.177l16.627,3.365l0.989,2.969l-1.781,2.771l-11.876,1.584
			l-9.896,5.146l-7.324,9.896l-15.834,8.709C245.745,238.397,234.066,217.021,237.827,212.666z"/>
		<path fill="#185E34" d="M214.273,206.926l10.688-13.657l18.408-10.49l22.96-2.375v2.375l-9.896,8.907l-11.48,11.479
			c0,0-9.699,12.074-9.501,12.668S217.634,212.813,214.273,206.926z"/>
	</g>
	<g opacity="0.37">
		<polygon points="89.051,56.5 87.08,35.997 98.15,21.879 122.171,8.397 122.959,10.763 105.611,44.395 		"/>
		<path d="M197.885,104.9l15.211,14.261l16.638,12.121l7.843,12.597l-2.614,0.713l-15.448-2.614l-31.374-6.893
			C188.14,135.085,190.993,107.277,197.885,104.9z"/>
		<path d="M199.549,78.043l28.283-0.476l19.489,4.753l6.417,7.606v4.516l-5.466-0.237l-17.113,1.188l-13.072,7.606l-9.507,3.565
			C208.581,106.564,195.509,88.976,199.549,78.043z"/>
		<path d="M190.28,68.062l10.934-18.301l12.597-11.646l10.458-4.278l-2.377-2.614l-9.982-0.476l-27.808,7.13l-11.884,6.66
			C172.217,44.536,185.526,67.824,190.28,68.062z"/>
		<polygon points="126.145,38.366 141.086,25.504 154.569,11.442 177.345,3.21 192.286,4.753 190.645,6.983 173.7,17.958 
			164.955,24.132 160.399,38.194 157.483,44.536 		"/>
		<path d="M240.598,235.824l21.377-3.365l26.919,7.521l3.562,1.386l-3.397,3.741l-13.064,6.928l-13.822,4.176
			C262.172,256.211,240.004,242.554,240.598,235.824z"/>
		<path d="M237.827,212.666l13.658-6.532l23.355-2.177l16.627,3.365l0.989,2.969l-1.781,2.771l-11.876,1.584l-9.896,5.146
			l-7.324,9.896l-15.834,8.709C245.745,238.397,234.066,217.021,237.827,212.666z"/>
		<path d="M214.273,206.926l10.688-13.657l18.408-10.49l22.96-2.375v2.375l-9.896,8.907l-11.48,11.479
			c0,0-9.699,12.074-9.501,12.668S217.634,212.813,214.273,206.926z"/>
	</g>
	<path fill="#185E34" d="M360.516,219.958c0,0-8.562,54.225-18.775,69.395s-22.53,27.938-22.53,27.938l-38.001,18.025l-21.779,1.502
		l-30.341-8.262l-6.759-16.372l-1.653-19.828l5.857-18.625l-3.755-5.106c0,0-17.273-2.404-22.08,1.201s-10.814,8.111-10.814,8.111
		l-22.23,22.833l-15.321,17.123l-20.276,12.918l-15.471,1.502l-21.028-4.957l-15.772-10.965l-13.368-17.874l-7.51-20.427
		l3.905-25.685l27.788-39.052l6.758-16.222l2.253-16.222l-4.056-10.815l-4.356-1.352l-10.814,3.755l-10.664,7.209l-8.261,9.613
		l-7.961,3.305l-14.87-6.609l-24.633-21.779L5.738,151.02L4.537,136.9l1.201-4.956l9.012,1.953l18.024-4.356l7.811-8.111
		l4.355-9.763l8.411-24.933l11.265-25.083l23.731-18.925l26.886-7.509l30.491-4.506l18.475,4.656l35.298,19.676l9.463,13.518
		l3.904,15.02l2.104,16.22l-5.858,22.681l-10.664,19.376l-16.823,22.831l-19.677,21.629l-11.715,17.424l-8.712,19.977l-1.652,16.522
		l4.506,8.261l7.36,0.901l3.905-0.15l4.056-5.257l3.304-9.612l15.771-18.476l15.32-11.716l16.823-3.154l25.082,4.956l13.218,9.764
		l11.716,16.973l8.862,22.229l-0.3,7.812l-2.253,13.969l0.751,7.359l15.923,3.156l20.127-4.807l15.619-10.514l18.024-21.479
		l10.515-15.922L360.516,219.958z"/>
	<polygon fill="#FFFFFF" points="79.393,117.986 98.914,99.002 122.196,84.675 145.658,77.153 150.984,75.82 151.388,81.631 
		151.03,91.302 143.508,105.629 135.091,115.121 122.733,122.822 115.033,126.583 101.063,128.374 90.576,128.036 83.154,123.717 
		78.576,119.536 	"/>
	<path fill="#3D5B87" d="M78.576,119.536c0,0,6,8,12,8.5s30-4,30-4l4.167-7.333c0,0,5.333-12.5,4.333-15s-6.167-17-8.833-16
		S81.743,108.203,78.576,119.536z"/>
	<path d="M100.743,129.369c0.831-0.243,1.885-1.835,2.422-2.422c1.755-1.915,3.467-3.949,4.662-6.271
		c2.059-4.001,2.17-8.676,1.449-13.029c-0.287-1.732-2.01-11.279-4.533-11.279c-0.833,0-24.5,18.834-24.5,18.834l-1.333,6.167
		C78.909,121.37,93.909,131.369,100.743,129.369z"/>
	<path d="M38.741,190.685c4.083,2.604,8.357,4.891,12.678,5.709c7.778,1.472,10.955-3.885,14.814-9.265
		c4.222-5.888,9.848-10.936,16.803-13.282c9.353-3.154,19.875-3.131,29.453-0.951c7.813,1.779,15.305,6.297,23.285,2.548
		c6.94-3.261,11.338-11.494,15.083-17.799c4.787-8.058,7.66-17.22,6.614-26.662c-0.32-2.886-2.42-9.098-6.477-8.362
		c-1.505,0.273-2.401,2.272-2.165,3.657c0.155,0.908,0.575,0.959,1.366,1.217c2.953,0.962,3.062,4.875,3.187,7.391
		c0.399,7.986-3.135,15.361-7.806,21.65c0,0-7.667,10.332-14.667,10.666c-9.894,0.473-20.389-1.831-30.271-2.243
		c-8-0.333-20.397,0.243-31.399,12.911c-4.586,5.281-6.707,11.842-15.164,9.318c-7.779-2.323-18.732-7.379-24.5-12.652
		c-5.768-5.274-11.269-10.716-15.735-17.169c-4.199-6.067-8.297-13.192-7.798-20.829c0.436-6.657,3.703-13.302,6.365-19.335
		c0.769-1.743,2.629-3.999,2.764-5.921c0.135-1.925-1.424-0.043-1.924,0.539C5.87,120.429,0.458,129.49-0.1,141.151
		c-0.143,2.978,0.048,6.106,0.632,9.035c0.684,3.429,1.981,7.148,3.76,10.173c5.831,9.912,14.962,17.635,24.554,23.711
		C31.948,186.036,35.276,188.475,38.741,190.685z"/>
	<path d="M41.993,185.786c-2.188-1.879,16.963-19.631,18.827-21.032c11.661-8.767,22.007-12.175,41.816-10.351
		c4.091,0.376,7.617-3.398,9.782-6.392c1.427-1.973,2.997-5.048,3.572-7.4c0.216-0.887,0.84-2.72-0.481-3.042
		c-1.674-0.409-3.397,4.562-3.97,5.461c-1.869,2.929-4.745,5.422-8.119,6.4c-4.227,1.226-8.421-0.147-12.689,0.118
		c-18.812,1.169-40.833,9.613-50.756,26.356c-4,6.75-4.482,6.883-4.482,6.883S41.991,185.784,41.993,185.786z"/>
	<path d="M143.057,238.117c0.13,1.539,0.441,3.009,0.974,4.38c2.967,7.639,14.152,4.547,19.736,1.799
		c2.437-1.199,5.563-2.743,8.449-4.645c1.843-1.214,3.16-3.147,4.443-4.896c0.61-0.831,1.186-1.684,1.758-2.542
		c0.201-0.302,0.858-1.562,1.336-1.502c1.007,0.125-0.224,4-0.358,4.422c-0.637,1.989-1.725,3.862-2.961,5.534
		c-0.713,0.963-1.488,1.878-2.317,2.743c-3.102,3.238-6.953,5.846-10.411,7.376c-7.844,3.472-20.787,4.779-25.589-4.166
		c-2.358-4.395-2.495-11.57-1.346-16.34c3.201-13.284,8.076-26.782,16.113-37.953c10.543-14.652,24.743-26.197,35.357-40.792
		c10.667-14.667,24.666-38.667,22.666-57.001c-1.361-12.481-5.421-25.589-13.422-35.447c-8.159-10.053-20.388-15.493-32.202-20.003
		c-15.273-5.83-30.784-4.429-46.472-1.364c-10.261,2.004-20.458,4.702-29.897,9.286C73.567,54.461,64.306,68.92,57.886,84.215
		c-1.958,4.664-2.184,9.14-3.855,13.889c-3.913,11.115-8.271,26.936-18.926,33.325c-6.681,4.006-30.057,12.301-30.196-1.56
		c2.681-0.022,5.22,1.028,7.833,1.486c5.814,1.018,11.097-0.084,16.014-3.395c4.457-3,9.113-6.402,11.721-11.227
		c3.831-7.089,3.021-15.755,5.765-23.199c4.219-11.442,9.108-23.363,15.667-33.667c8.216-12.908,23.259-24.376,38.666-27.333
		c11.549-2.217,23.022-5.503,34.846-5.832c14.916-0.415,29.942,3.458,43.14,10.218c11.805,6.047,24.23,13.817,31.367,25.336
		c5.19,8.378,8.701,17.737,8.717,27.671c0.048,30.011-16.159,57.614-36.124,78.912c-5.977,6.376-12.568,12.313-18.276,18.924
		c-6.115,7.083-10.227,15.287-13.896,23.821C146.826,219.773,142.285,228.948,143.057,238.117z"/>
	<path d="M90.75,36.842c2.347-5.556,4.917-10.019,10.285-13.678c7.827-5.337,20.882-13.99,20.171-12.211
		c-0.711,1.779-13.875,20.635-13.875,20.635s8.182-0.711,8.183-0.711c3.305-5.539,5.319-9.156,8.183-14.943
		c0.675-1.364,4.517-8.227,3.914-9.606c-1.291-2.952-9.351,0.042-11.224,0.923c-13.476,6.341-32.464,15.521-32.181,32.521
		C84.92,46.65,90.716,36.92,90.75,36.842z"/>
	<path d="M214.918,270.837c6.07,0.202,10.917,3.458,15.149,7.543c2.655,2.562,5.779,6.281,9.398,8.259
		c0.873,0.477,3.641,2.062,4.501,1.175c1.077-1.11-1.453-5.222-1.92-6.381c-4.019-9.993-14.406-19.237-23.624-21.04
		c-30.161-5.899-44.261,31.16-62.829,47.667c-15.894,14.127-46.442,25.771-65.896,12.812c-5.848-3.896-10.603-9.535-14.834-15.081
		c-7.204-9.439-12.747-20.86-12.733-32.932c0.015-12.853,6.701-24.814,13.95-35.041c8.305-11.716,18.412-21.811,23.537-35.518
		c2.844-7.605,3.787-16.12,2.581-24.134c-0.103-0.685-1.216-8.632-2.289-8.632h-8.667c0,0,8.667,15,3.667,24.667
		c-8.343,16.131-22.529,28.903-31.225,44.907c-7.547,13.891-9.989,30.456-6.111,46.093c1.824,7.354,5.896,15.002,9.93,21.15
		c3.584,5.463,8.231,11.255,13.251,15.471c21.685,18.21,51.5,19.502,73.336,1.521c8.659-7.13,16.193-15.606,22.811-24.642
		c6.994-9.55,14.767-18.845,25.341-24.615C206.429,271.803,210.757,270.698,214.918,270.837z"/>
	<path d="M139.757,30.646c1.13,0.131,8.28-8.924,9.615-10.124c3.699-3.324,7.773-6.297,12.244-8.646
		c6.237-3.279,13.745-6.484,20.993-6.747c1.458-0.053,3.887-0.379,4.964,0.777c-1.46,1.317-4.028,1.744-5.842,2.542
		c-2.774,1.22-5.34,2.806-7.999,4.221c-4.413,2.347-6.58,5.017-9.983,8.604c-2.332,2.456-6.392,7.607-4.263,11.265
		c2.847,0.618,4.924,2.428,6.019,1.023c1.168-1.5,0.974-6.857,2.461-8.591c4.148-4.833,8.958-7.506,14.466-10.63
		c4.911-2.786,9.927-6.127,15.272-8.141c3.856-1.453-5.371-4.893-6.169-5.105c-4.415-1.175-9.116-1.359-13.64-0.756
		c-14.217,1.895-27.952,9.428-38.153,18.753c-1.156,1.057-8.87,11.496-9.977,11.557C129.766,30.646,136.559,30.27,139.757,30.646z"
		/>
	<path d="M212.243,122.536c0,0,20.5,14.667,22,19.667c-3.486-0.581-10.897-4.421-14.249-4.95
		c-5.211-0.821-12.514-1.516-15.798-1.195c-3.693,0.36-3.047,2.446-3.453,4.478c-1,5,24,3.463,31.5,7.963
		c4.516,2.052,10.971,4.231,12.08,3.452c1.82-1.278-3.264-12.011-3.854-13.334c-1.618-3.627-3.296-5.523-6.245-8.279
		c-1.667-1.558-3.561-2.879-5.271-4.395c-4.238-3.754-9.461-7.071-13.689-10.837c-0.192-0.171-3.05-2.5-2.969-2.676
		C212.293,112.43,209.243,119.036,212.243,122.536z"/>
	<path d="M253.915,85.163c-1.856-2.137-4.33-4.795-7.005-6.394c-1.984-1.186-4.334-2.181-7.395-3.133
		c-3.979-1.238-8.656-1.97-13.9-2.176c-0.894-0.035-1.912-0.123-2.991-0.215c-1.621-0.14-3.458-0.297-5.202-0.297
		c-2.381,0-3.105,1.726-4.485,2.342c-1.069,0.478-2.285,2.549-3.34,4.453l-0.206,0.37c-0.348,0.617-0.248,1.042-0.103,1.29
		c0.265,0.454,0.87,0.674,1.849,0.674c0.766,0,1.579-0.129,2.047-0.203c1.252-0.196,2.503-0.461,3.713-0.718
		c1.699-0.36,3.456-0.733,5.21-0.91c0.971-0.098,1.979-0.148,2.999-0.148c4.152,0,8.26,0.835,11.374,1.563
		c5.917,1.383,11.497,3.009,14.746,7.653c0.343,0.489,0.929,1.523,1.105,2.068c-1.032-0.193-3.183-0.287-6.55-0.287l-2.235,0.008
		l-0.45-0.001c-4.936,0-8.829,0.598-12.253,1.882c-4.355,1.635-8.719,4.075-14.198,7.954c-1.618,1.509-2.848,6.222-3.111,7.329
		c-0.017,0.04-0.03,0.079-0.039,0.119l0.011,0.002c-0.017,0.07-0.024,0.109-0.024,0.112l0.961,0.18
		c0.165-0.24,1.271-0.791,1.687-0.998c0.281-0.14,0.51-0.256,0.615-0.324c3.854-2.469,6.974-3.415,10.361-5.354l1.049-0.603
		c2.995-1.727,6.093-3.513,9.426-4.513c1.841-0.552,3.852-0.82,6.147-0.82c2.622,0,5.271,0.347,7.981,0.733
		c0.38,0.054,0.872,0.195,1.393,0.344c0.854,0.245,1.82,0.521,2.667,0.521c1.33,0,1.161-3.221,1.335-4.539
		C257.489,90.183,255.281,86.735,253.915,85.163z"/>
	<path d="M194.946,49.575c6.421-4.649,12.099-10.141,19.214-13.649c1.794-0.885,4.599-1.932,4.875-2.935s-22.526,2.072-32.531,6.477
		c-1.088,0.479-2.646,1.121-3.427,2.077c-2.444,2.991-5.98-3.095-5.98-3.095c0,0,13.842-7.731,29.549-10.359
		c8.341-1.395,17.931-1.763,25.136,0.174c1.089,0.293,6.471,2.256,6.922,3.51c0.38,1.053-0.297,2.397-1.149,2.618
		c-5.993,1.544-12.345,1.485-18.001,4.228c-5.374,2.605-9.682,6.825-14.302,10.513c-0.656,0.524-7.131,5.716-7.395,5.368
		L194.946,49.575z"/>
	<path d="M220.793,271.064c0,0-9.282,31.383-7.073,39.342c3.478,12.531,10.816,23.493,23.63,27.8
		c18.318,6.157,42.021,3.833,59.505-3.502c19.184-8.049,35.443-22.267,45.332-40.615c12.189-22.617,20.062-51.644,20.062-77.396
		c0-8.841-3.096-7.956-3.537-4.861c-3.311,23.18-7.493,48.584-18.314,69.495c-8.156,15.762-17.981,29.521-33.511,38.609
		c-18.486,10.818-43.595,16.441-64.331,8.959c-12.634-4.559-16.784-18.973-16.472-30.939c0.062-2.371,2.011-22.912,6.158-22.913
		C233.612,275.042,222.12,269.297,220.793,271.064z"/>
	<path d="M161.356,244.716c0,0,19.746-35.681,35.681-38.452s40.877-6.929,58.544,25.635c7.38,13.603,15.229,27.818,8.955,42.85
		c-1.693,4.059-1.159,8.673,2.109,11.732c3.889,3.641,10.331,4.087,15.387,4.032c15.849-0.172,28.899-7.162,40.258-17.854
		c2.962-2.789,5.676-5.824,8.323-8.91c7.467-8.704,14.145-19.632,20.463-29.211c3.435-5.208,8.957-12.832,8.99-19.386
		c-6.609,6.008-8.093,10.362-10.932,14.546c-3.852,5.675-7.639,11.4-11.628,16.981c-3.855,5.393-7.923,10.647-12.47,15.479
		c-2.613,2.776-5.371,5.416-8.314,7.841c-3.785,3.118-7.904,5.855-12.271,8.094c-5.53,2.835-11.662,4.992-17.805,5.954
		c-4.702,0.736-14.556,1.489-16.664-4.331c-1.178-3.25,1.353-6.083,2.573-8.845c1.41-3.191,2.018-6.7,1.846-10.192
		c-0.391-7.93-3.595-15.433-6.097-22.867c-3.801-11.299-9.4-22.163-19.415-29.108c-12.846-8.908-29.797-14.141-45.353-11.113
		c-11.916,2.319-22.085,9.888-29.979,18.83c-6.539,7.408-17.746,20.64-17.746,31.068
		C155.812,252.338,160.665,246.793,161.356,244.716z"/>
	<path d="M223.179,199.418c0,0,21.978-18.888,36.058-17.857s-20.604,11.333-20.604,24.039c0,5.838,5.344,2.848,5.344,2.848
		c5.31-4.997,9.261-11.332,14.975-15.864c3.737-2.965,7.629-6.02,11.851-8.256c1.949-1.033,6.378-2.784,5.051-5.338
		c-1.496-2.879-14.289-4.228-16.741-4.133c-18.888,0-44.86,17.351-42.113,24.906S223.179,199.418,223.179,199.418z"/>
	<path d="M293.367,204.224c-4.999-1.943-13.036-4.26-22.94-4.26c-9.789,0-19.253,2.283-28.129,6.786l-0.057,0.039
		c-1.973,1.831-2.743,3.061-2.426,3.869c0.214,0.545,0.872,0.811,2.01,0.811h0.001c1.812,0,4.243-0.678,4.36-0.711
		c0.15-0.053,15.188-5.253,28.206-5.253c5.295,0,9.568,0.855,12.7,2.541c2.664,1.435,3.166,2.051,3.118,2.313
		c-0.089,0.486-2.224,0.772-4.484,1.075c-6.862,0.92-19.637,2.632-25.023,13.806c-2.154,4.579-1.959,5.809-1.625,6.335
		c0.123,0.193,0.367,0.424,0.835,0.424c1.447,0,4.103-2.322,4.215-2.421l0.051-0.044l0.021-0.064
		c0.011-0.032,1.113-3.271,4.241-6.604c2.889-3.079,8.143-6.858,16.763-7.376c10.624-0.639,12.677-3.709,12.955-5.482
		C298.5,207.832,296.529,205.453,293.367,204.224z"/>
	<path d="M300.999,243.816c-0.204-2.041-3.161-3.976-4.387-5.111c-3.995-3.706-8.666-5.718-13.829-6.836
		c-4.872-1.056-9.738-0.9-14.648-1.77c-1.361-0.241-2.816-0.633-4.208-0.633l-0.27,0.05c-0.26,0.086-0.722,0.337-0.892,1.056
		c-0.293,1.24,0.447,3.96,1.637,5.15l0.203,0.201l0.284,0.065c5.153,1.159,9.91,1.917,15.205,2.389
		c2.251,0.2,7.92,1.266,8.731,4.021c-0.694,0.31-1.451,0.425-2.208,0.574c-2.473,0.49-4.766,1.623-7.023,2.703
		c-9.583,4.583-9.438,5.743-9.342,6.511c0.203,1.624,0.405,2.715,0.467,3.028l0.272,1.355l1.203-0.683
		c5.641-3.211,10.822-5.132,15.906-7.461l0.237-0.108c2.716-1.241,5.629-1.873,8.604-2.032
		C298.575,246.199,301.229,246.134,300.999,243.816z"/>
	<path fill="#3D5B87" d="M104.909,93.703c-1.237,1.237-0.96,6.342-0.886,7.927c0.506,10.791,13.766,9.348,19.605,4.174
		c1.144-1.013,4.228-4.07,4.114-5.768c-0.167-2.5-3.941-14.922-7.721-13.627S105.409,93.203,104.909,93.703z"/>
	<path opacity="0.3" fill="#FFFFFF" d="M104.909,93.703c-1.237,1.237-0.96,6.342-0.886,7.927
		c0.506,10.791,13.766,9.348,19.605,4.174c1.144-1.013,4.228-4.07,4.114-5.768c-0.167-2.5-3.941-14.922-7.721-13.627
		S105.409,93.203,104.909,93.703z"/>
	<g>
		<path d="M97.99,131.018c-3.944-0.089-7.756-0.329-11.428-2.081c-2.982-1.423-5.705-3.536-8-5.906
			c-0.475-0.491-0.884-1.017-1.324-1.534c-0.358-0.42,1.436-1.616,1.857-1.973c0.42-0.358,1.05-0.308,1.408,0.113
			c0.032,0.037,2.113,2.42,6.27,4.388c3.844,1.819,10.312,3.646,19.292,2.027c20.174-3.643,36.018-16.073,42.38-33.25
			c1.748-4.721,2.58-11.979,1.419-16.312c-0.143-0.534,0.587-0.527,1.12-0.67c0.534-0.143,0.589,0.172,0.73,0.706
			c1.362,5.085,1.009,14.741-0.714,19.392c-3.134,8.46-8.889,15.993-15.991,21.476c-7.612,5.876-16.867,11.014-26.364,12.891
			c-2.991,0.591-6.036,0.819-9.083,0.764C99.036,131.039,98.512,131.03,97.99,131.018z"/>
	</g>
	<g>
		<path d="M73.875,125.085c-1.536-0.356,0.796-5.57,1.204-6.277c7.213-12.488,20.406-22.358,32.667-29.333
			c3.743-2.129,7.562-4.106,11.475-5.903c9.606-4.412,24.068-8.373,34.732-8.863c0.626-0.029,1.247,0.005,1.87-0.01
			c0.634-0.015,3.075,0.726,3.094,1.348c0.018,0.621-2.406,0.883-3.027,0.901c-0.082,0.003-11.651,1.269-31.154,8.826
			c-12.989,5.034-23.93,14.998-34.37,23.958c-2.843,2.44-5.602,4.994-8.05,7.836c-1.86,2.159-3.255,5.571-6.071,6.573
			C75.877,124.273,74.092,125.136,73.875,125.085z"/>
	</g>
	<g>
		<path d="M119.242,125.203c-0.215,0-0.432-0.069-0.615-0.212c-0.436-0.34-0.513-0.968-0.173-1.403
			c7.178-9.193,9.514-17.366,7.351-25.719c-0.656-2.533-2.192-8.465-5.357-10.111c-0.49-0.255-0.681-0.858-0.426-1.349
			c0.255-0.49,1.711-1.146,2.202-0.89c3.485,1.812,7.441,7.895,8.636,12.507c2.332,9.005-0.069,17.706-10.83,26.792
			C119.785,125.025,119.539,125.203,119.242,125.203z"/>
	</g>
</g>
</svg>
