<svg id="svg" version="1.1" width="400" height="400" viewBox="0 0 400 400" xmlns="http://www.w3.org/2000/svg" xmlns:xlink="http://www.w3.org/1999/xlink" ><g id="svgg"><path id="path0" d="M203.600 93.200 C 203.600 93.420,203.267 93.600,202.860 93.600 C 202.139 93.600,198.000 97.451,198.000 98.121 C 198.000 98.600,196.937 99.600,196.429 99.600 C 196.193 99.600,196.000 99.780,196.000 100.000 C 196.000 100.220,195.730 100.400,195.400 100.400 C 195.070 100.400,194.800 100.580,194.800 100.800 C 194.800 101.020,194.350 101.200,193.800 101.200 C 193.250 101.200,192.800 101.380,192.800 101.600 C 192.800 101.820,192.440 102.000,192.000 102.000 C 191.560 102.000,191.200 102.180,191.200 102.400 C 191.200 102.620,190.480 102.800,189.600 102.800 C 188.720 102.800,188.000 102.980,188.000 103.200 C 188.000 103.420,187.100 103.600,186.000 103.600 C 184.900 103.600,184.000 103.780,184.000 104.000 C 184.000 104.222,182.933 104.400,181.600 104.400 C 180.267 104.400,179.200 104.578,179.200 104.800 C 179.200 105.039,177.667 105.200,175.400 105.200 C 173.133 105.200,171.600 105.361,171.600 105.600 C 171.600 105.833,170.267 106.000,168.400 106.000 C 166.533 106.000,165.200 106.167,165.200 106.400 C 165.200 106.622,164.133 106.800,162.800 106.800 C 161.467 106.800,160.400 106.978,160.400 107.200 C 160.400 107.420,159.410 107.600,158.200 107.600 C 156.990 107.600,156.000 107.780,156.000 108.000 C 156.000 108.220,155.100 108.400,154.000 108.400 C 152.900 108.400,152.000 108.580,152.000 108.800 C 152.000 109.020,151.280 109.200,150.400 109.200 C 149.520 109.200,148.800 109.354,148.800 109.543 C 148.800 109.732,147.675 110.003,146.300 110.147 C 144.925 110.290,143.740 110.586,143.667 110.804 C 143.593 111.022,143.188 111.200,142.767 111.200 C 142.345 111.200,142.000 111.380,142.000 111.600 C 142.000 111.820,141.640 112.000,141.200 112.000 C 140.760 112.000,140.400 112.180,140.400 112.400 C 140.400 112.620,140.040 112.800,139.600 112.800 C 139.067 112.800,138.800 113.067,138.800 113.600 C 138.800 114.040,138.620 114.400,138.400 114.400 C 138.180 114.400,138.000 114.760,138.000 115.200 C 138.000 115.640,137.820 116.000,137.600 116.000 C 137.380 116.000,137.200 116.320,137.200 116.712 C 137.200 117.103,136.840 117.683,136.400 118.000 C 135.960 118.317,135.600 118.857,135.600 119.200 C 135.600 119.543,135.240 120.083,134.800 120.400 C 134.360 120.717,134.000 121.257,134.000 121.600 C 134.000 121.943,133.640 122.483,133.200 122.800 C 132.760 123.117,132.400 123.657,132.400 124.000 C 132.400 124.343,132.040 124.883,131.600 125.200 C 131.160 125.517,130.800 126.054,130.800 126.392 C 130.800 126.731,130.440 127.232,130.000 127.507 C 129.269 127.963,129.200 128.440,129.200 133.003 L 129.200 138.000 124.600 138.000 C 121.800 138.000,120.000 138.157,120.000 138.400 C 120.000 138.620,119.100 138.800,118.000 138.800 C 116.900 138.800,116.000 138.980,116.000 139.200 C 116.000 139.420,115.460 139.600,114.800 139.600 C 114.140 139.600,113.600 139.780,113.600 140.000 C 113.600 140.220,113.276 140.400,112.880 140.400 C 111.986 140.400,110.007 141.294,110.003 141.700 C 110.001 141.865,109.640 142.000,109.200 142.000 C 108.760 142.000,108.400 142.180,108.400 142.400 C 108.400 142.620,108.040 142.800,107.600 142.800 C 107.160 142.800,106.800 142.962,106.800 143.161 C 106.800 143.359,106.305 143.698,105.700 143.914 C 105.095 144.129,104.167 144.687,103.639 145.153 C 103.110 145.619,102.547 146.000,102.388 146.000 C 101.682 146.000,94.861 153.184,93.970 154.866 C 93.697 155.380,93.143 156.091,92.737 156.447 C 92.332 156.803,92.000 157.348,92.000 157.659 C 92.000 157.969,91.640 158.483,91.200 158.800 C 90.760 159.117,90.400 159.607,90.400 159.888 C 90.400 160.170,90.220 160.400,90.000 160.400 C 89.780 160.400,89.600 160.678,89.600 161.017 C 89.600 161.356,89.240 162.020,88.800 162.492 C 88.360 162.964,88.000 163.587,88.000 163.875 C 88.000 164.164,87.820 164.400,87.600 164.400 C 87.380 164.400,87.200 164.720,87.200 165.112 C 87.200 165.503,86.840 166.083,86.400 166.400 C 85.960 166.717,85.600 167.297,85.600 167.688 C 85.600 168.080,85.420 168.400,85.200 168.400 C 84.980 168.400,84.800 168.760,84.800 169.200 C 84.800 169.640,84.620 170.000,84.400 170.000 C 84.180 170.000,84.000 170.360,84.000 170.800 C 84.000 171.240,83.820 171.600,83.600 171.600 C 83.380 171.600,83.200 171.960,83.200 172.400 C 83.200 172.840,83.020 173.200,82.800 173.200 C 82.580 173.200,82.400 173.560,82.400 174.000 C 82.400 174.440,82.220 174.800,82.000 174.800 C 81.780 174.800,81.600 175.340,81.600 176.000 C 81.600 176.660,81.420 177.200,81.200 177.200 C 80.980 177.200,80.800 177.560,80.800 178.000 C 80.800 178.440,80.620 178.800,80.400 178.800 C 80.180 178.800,80.000 179.162,80.000 179.605 C 80.000 180.048,79.842 180.723,79.649 181.105 C 79.080 182.233,78.400 184.596,78.400 185.448 C 78.400 185.884,78.208 186.432,77.973 186.667 C 77.360 187.280,76.979 201.387,77.523 203.330 C 78.102 205.396,77.793 206.000,76.157 206.000 C 75.411 206.000,74.800 206.180,74.800 206.400 C 74.800 206.620,74.260 206.800,73.600 206.800 C 72.940 206.800,72.400 206.980,72.400 207.200 C 72.400 207.420,71.860 207.600,71.200 207.600 C 70.540 207.600,70.000 207.780,70.000 208.000 C 70.000 208.220,69.680 208.400,69.288 208.400 C 68.897 208.400,68.317 208.760,68.000 209.200 C 67.683 209.640,67.140 210.000,66.793 210.000 C 65.622 210.000,58.400 216.529,58.400 217.588 C 58.400 217.849,57.680 218.754,56.800 219.600 C 55.920 220.446,55.200 221.382,55.200 221.680 C 55.200 221.979,54.840 222.483,54.400 222.800 C 53.960 223.117,53.600 223.697,53.600 224.088 C 53.600 224.480,53.420 224.800,53.200 224.800 C 52.980 224.800,52.800 225.160,52.800 225.600 C 52.800 226.040,52.620 226.400,52.400 226.400 C 52.180 226.400,52.000 226.670,52.000 227.000 C 52.000 227.330,51.820 227.600,51.600 227.600 C 51.380 227.600,51.200 227.870,51.200 228.200 C 51.200 228.530,51.054 228.800,50.875 228.800 C 50.696 228.800,50.302 229.430,50.000 230.200 C 49.698 230.970,49.304 231.600,49.125 231.600 C 48.946 231.600,48.800 231.960,48.800 232.400 C 48.800 232.840,48.620 233.200,48.400 233.200 C 48.180 233.200,48.000 233.465,48.000 233.788 C 48.000 234.111,47.640 235.017,47.200 235.800 C 46.760 236.583,46.400 237.579,46.400 238.012 C 46.400 238.445,46.253 238.800,46.072 238.800 C 45.892 238.800,45.496 239.711,45.193 240.825 C 44.890 241.939,44.506 242.935,44.339 243.038 C 44.173 243.140,43.915 244.299,43.767 245.612 C 43.618 246.925,43.340 248.000,43.148 248.000 C 42.957 248.000,42.800 248.720,42.800 249.600 C 42.800 250.480,42.620 251.200,42.400 251.200 C 42.178 251.200,42.000 252.267,42.000 253.600 C 42.000 254.933,41.822 256.000,41.600 256.000 C 41.348 256.000,41.200 258.733,41.200 263.400 C 41.200 268.067,41.348 270.800,41.600 270.800 C 41.820 270.800,42.000 271.610,42.000 272.600 C 42.000 273.590,42.180 274.400,42.400 274.400 C 42.620 274.400,42.800 274.940,42.800 275.600 C 42.800 276.260,42.964 276.800,43.165 276.800 C 43.366 276.800,43.651 277.520,43.800 278.400 C 43.949 279.280,44.234 280.000,44.435 280.000 C 44.636 280.000,44.800 280.360,44.800 280.800 C 44.800 281.240,44.938 281.600,45.106 281.600 C 45.274 281.600,45.717 282.305,46.090 283.166 C 46.463 284.027,47.225 285.189,47.784 285.748 C 48.343 286.306,48.800 286.924,48.800 287.120 C 48.800 287.316,49.719 288.359,50.843 289.438 C 51.966 290.517,53.490 291.985,54.230 292.700 C 54.969 293.415,55.810 294.000,56.098 294.000 C 56.387 294.000,56.883 294.360,57.200 294.800 C 57.517 295.240,58.057 295.600,58.400 295.600 C 58.743 295.600,59.283 295.960,59.600 296.400 C 59.917 296.840,60.407 297.200,60.688 297.200 C 60.970 297.200,61.200 297.380,61.200 297.600 C 61.200 297.820,61.470 298.000,61.800 298.000 C 62.130 298.000,62.400 298.180,62.400 298.400 C 62.400 298.620,62.670 298.800,63.000 298.800 C 63.330 298.800,63.600 298.980,63.600 299.200 C 63.600 299.420,63.960 299.600,64.400 299.600 C 64.840 299.600,65.200 299.780,65.200 300.000 C 65.200 300.220,65.560 300.400,66.000 300.400 C 66.440 300.400,66.800 300.580,66.800 300.800 C 66.800 301.020,67.149 301.200,67.576 301.200 C 68.003 301.200,68.464 301.380,68.600 301.600 C 68.736 301.820,69.203 302.000,69.637 302.000 C 70.568 302.000,73.200 304.501,73.200 305.387 C 73.200 305.724,73.380 306.000,73.600 306.000 C 73.820 306.000,74.000 306.270,74.000 306.600 C 74.000 306.930,74.180 307.200,74.400 307.200 C 74.620 307.200,74.800 307.470,74.800 307.800 C 74.800 308.130,74.980 308.400,75.200 308.400 C 75.420 308.400,75.600 308.630,75.600 308.912 C 75.600 309.193,75.960 309.683,76.400 310.000 C 76.840 310.317,77.200 310.869,77.200 311.227 C 77.200 311.585,77.555 312.287,77.988 312.786 C 78.422 313.286,78.884 314.034,79.015 314.448 C 79.146 314.861,79.422 315.200,79.627 315.200 C 79.832 315.200,80.000 315.436,80.000 315.725 C 80.000 316.013,80.315 316.598,80.700 317.025 C 81.085 317.451,81.655 318.295,81.968 318.900 C 82.280 319.505,82.685 320.000,82.868 320.000 C 83.050 320.000,83.200 320.236,83.200 320.525 C 83.200 320.813,83.560 321.436,84.000 321.908 C 84.440 322.380,84.800 322.954,84.800 323.183 C 84.800 323.412,84.980 323.600,85.200 323.600 C 85.420 323.600,85.600 323.858,85.600 324.173 C 85.600 324.488,85.960 324.860,86.400 325.000 C 86.840 325.140,87.200 325.602,87.200 326.027 C 87.200 326.452,87.380 326.800,87.600 326.800 C 87.820 326.800,88.000 327.120,88.000 327.512 C 88.000 327.903,88.360 328.483,88.800 328.800 C 89.240 329.117,89.600 329.657,89.600 330.000 C 89.600 330.343,89.960 330.883,90.400 331.200 C 90.840 331.517,91.200 332.097,91.200 332.488 C 91.200 332.880,91.380 333.200,91.600 333.200 C 91.820 333.200,92.000 333.520,92.000 333.912 C 92.000 334.303,92.360 334.883,92.800 335.200 C 93.240 335.517,93.600 336.072,93.600 336.432 C 93.600 336.793,94.017 337.703,94.526 338.453 C 95.036 339.204,95.710 340.399,96.024 341.109 C 96.338 341.819,96.731 342.400,96.898 342.400 C 97.064 342.400,97.200 342.760,97.200 343.200 C 97.200 343.640,97.380 344.000,97.600 344.000 C 97.820 344.000,98.000 344.360,98.000 344.800 C 98.000 345.240,98.180 345.600,98.400 345.600 C 98.620 345.600,98.800 346.140,98.800 346.800 C 98.800 347.460,98.935 348.001,99.100 348.003 C 99.459 348.007,100.400 349.944,100.400 350.680 C 100.400 350.966,100.580 351.200,100.800 351.200 C 101.020 351.200,101.200 351.560,101.200 352.000 C 101.200 352.440,101.380 352.800,101.600 352.800 C 101.820 352.800,102.000 353.160,102.000 353.600 C 102.000 354.040,102.180 354.400,102.400 354.400 C 102.620 354.400,102.800 354.760,102.800 355.200 C 102.800 355.640,102.980 356.000,103.200 356.000 C 103.420 356.000,103.600 356.270,103.600 356.600 C 103.600 356.930,103.780 357.200,104.000 357.200 C 104.220 357.200,104.400 357.470,104.400 357.800 C 104.400 358.130,104.580 358.400,104.800 358.400 C 105.020 358.400,105.200 358.670,105.200 359.000 C 105.200 359.330,105.380 359.600,105.600 359.600 C 105.820 359.600,106.000 359.920,106.000 360.312 C 106.000 360.703,106.360 361.283,106.800 361.600 C 107.240 361.917,107.600 362.413,107.600 362.702 C 107.600 362.990,108.185 363.825,108.900 364.555 C 109.615 365.286,110.470 366.291,110.800 366.788 C 111.130 367.286,111.715 368.105,112.100 368.609 C 112.485 369.114,112.800 369.813,112.800 370.163 C 112.800 370.513,112.935 370.801,113.100 370.803 C 113.459 370.807,114.400 372.744,114.400 373.480 C 114.400 373.766,114.580 374.000,114.800 374.000 C 115.020 374.000,115.200 374.450,115.200 375.000 C 115.200 375.550,115.380 376.000,115.600 376.000 C 115.820 376.000,116.000 376.540,116.000 377.200 C 116.000 377.860,116.180 378.400,116.400 378.400 C 116.620 378.400,116.800 378.760,116.800 379.200 C 116.800 379.640,116.980 380.000,117.200 380.000 C 117.420 380.000,117.600 380.360,117.600 380.800 C 117.600 381.240,117.780 381.600,118.000 381.600 C 118.220 381.600,118.400 381.960,118.400 382.400 C 118.400 383.193,118.667 383.200,151.200 383.200 C 172.800 383.200,184.000 383.337,184.000 383.600 C 184.000 383.865,207.333 384.000,253.200 384.000 C 299.067 384.000,322.400 383.865,322.400 383.600 C 322.400 383.380,322.760 383.200,323.200 383.200 C 323.640 383.200,324.000 383.020,324.000 382.800 C 324.000 382.580,324.270 382.400,324.600 382.400 C 324.930 382.400,325.200 382.220,325.200 382.000 C 325.200 381.780,325.475 381.600,325.811 381.600 C 326.842 381.600,330.000 378.140,330.000 377.011 C 330.000 376.455,330.180 376.000,330.400 376.000 C 330.620 376.000,330.800 375.640,330.800 375.200 C 330.800 374.760,330.980 374.400,331.200 374.400 C 331.420 374.400,331.600 373.770,331.600 373.000 C 331.600 372.230,331.780 371.600,332.000 371.600 C 332.220 371.600,332.400 371.071,332.400 370.424 C 332.400 369.777,332.580 369.136,332.800 369.000 C 333.020 368.864,333.200 367.953,333.200 366.976 C 333.200 365.999,333.380 365.200,333.600 365.200 C 333.861 365.200,334.000 358.600,334.000 346.200 C 334.000 333.800,333.861 327.200,333.600 327.200 C 333.358 327.200,333.200 325.467,333.200 322.800 C 333.200 320.133,333.042 318.400,332.800 318.400 C 332.578 318.400,332.400 317.333,332.400 316.000 C 332.400 314.667,332.222 313.600,332.000 313.600 C 331.780 313.600,331.600 312.790,331.600 311.800 C 331.600 310.810,331.420 310.000,331.200 310.000 C 330.980 310.000,330.800 309.460,330.800 308.800 C 330.800 308.140,330.620 307.600,330.400 307.600 C 330.180 307.600,330.000 307.420,330.000 307.200 C 330.000 306.969,331.259 306.800,332.976 306.800 C 334.613 306.800,336.064 306.620,336.200 306.400 C 336.336 306.180,337.056 306.000,337.800 306.000 C 338.544 306.000,339.264 305.820,339.400 305.600 C 339.536 305.380,340.087 305.200,340.624 305.200 C 341.161 305.200,341.600 305.020,341.600 304.800 C 341.600 304.580,341.856 304.400,342.170 304.400 C 342.840 304.400,351.200 296.249,351.200 295.595 C 351.200 295.349,352.100 294.271,353.200 293.200 C 354.300 292.129,355.200 291.142,355.200 291.009 C 355.200 290.875,355.641 290.289,356.180 289.708 C 356.720 289.126,357.572 287.784,358.075 286.725 C 358.578 285.666,359.126 284.800,359.294 284.800 C 359.462 284.800,359.600 284.480,359.600 284.088 C 359.600 283.697,359.960 283.117,360.400 282.800 C 360.840 282.483,361.200 281.943,361.200 281.600 C 361.200 281.257,361.560 280.717,362.000 280.400 C 362.440 280.083,362.800 279.503,362.800 279.112 C 362.800 278.720,362.980 278.400,363.200 278.400 C 363.420 278.400,363.600 278.080,363.600 277.688 C 363.600 277.297,363.960 276.717,364.400 276.400 C 365.302 275.750,365.689 256.000,364.800 256.000 C 364.580 256.000,364.400 255.280,364.400 254.400 C 364.400 253.520,364.220 252.800,364.000 252.800 C 363.780 252.800,363.600 252.080,363.600 251.200 C 363.600 250.320,363.420 249.600,363.200 249.600 C 362.980 249.600,362.800 249.161,362.800 248.624 C 362.800 248.087,362.620 247.536,362.400 247.400 C 362.180 247.264,362.000 246.803,362.000 246.376 C 362.000 245.949,361.820 245.600,361.600 245.600 C 361.380 245.600,361.200 245.240,361.200 244.800 C 361.200 244.360,361.020 244.000,360.800 244.000 C 360.580 244.000,360.400 243.550,360.400 243.000 C 360.400 242.450,360.220 242.000,360.000 242.000 C 359.780 242.000,359.600 241.640,359.600 241.200 C 359.600 240.760,359.420 240.400,359.200 240.400 C 358.980 240.400,358.800 240.053,358.800 239.629 C 358.800 239.204,358.530 238.587,358.200 238.257 C 357.870 237.927,357.600 237.389,357.600 237.062 C 357.600 236.735,357.465 236.407,357.300 236.333 C 357.135 236.260,356.567 235.345,356.037 234.300 C 355.508 233.255,354.923 232.400,354.737 232.400 C 354.552 232.400,354.400 232.164,354.400 231.875 C 354.400 231.587,354.040 230.964,353.600 230.492 C 353.160 230.020,352.800 229.510,352.800 229.360 C 352.800 229.210,352.260 228.571,351.600 227.940 C 350.940 227.309,350.400 226.611,350.400 226.388 C 350.400 225.834,346.128 221.600,345.569 221.600 C 345.323 221.600,344.617 221.060,344.000 220.400 C 343.383 219.740,342.591 219.200,342.240 219.200 C 341.888 219.200,341.600 219.020,341.600 218.800 C 341.600 218.580,341.330 218.400,341.000 218.400 C 340.670 218.400,340.400 218.220,340.400 218.000 C 340.400 217.780,340.040 217.600,339.600 217.600 C 339.160 217.600,338.800 217.420,338.800 217.200 C 338.800 216.980,338.440 216.800,338.000 216.800 C 337.560 216.800,337.200 216.620,337.200 216.400 C 337.200 216.180,336.480 216.000,335.600 216.000 C 334.720 216.000,334.000 215.820,334.000 215.600 C 334.000 215.371,332.800 215.200,331.200 215.200 C 329.600 215.200,328.400 215.029,328.400 214.800 C 328.400 214.580,328.580 214.400,328.800 214.400 C 329.055 214.400,329.200 211.067,329.200 205.200 C 329.200 199.333,329.055 196.000,328.800 196.000 C 328.580 196.000,328.400 195.280,328.400 194.400 C 328.400 193.520,328.220 192.800,328.000 192.800 C 327.780 192.800,327.600 192.260,327.600 191.600 C 327.600 190.940,327.420 190.400,327.200 190.400 C 326.980 190.400,326.800 190.040,326.800 189.600 C 326.800 189.160,326.620 188.800,326.400 188.800 C 326.180 188.800,326.000 188.440,326.000 188.000 C 326.000 187.560,325.820 187.200,325.600 187.200 C 325.380 187.200,325.200 186.921,325.200 186.580 C 325.200 185.830,324.105 183.647,323.348 182.891 C 323.047 182.590,322.800 182.204,322.800 182.034 C 322.800 181.864,321.810 180.702,320.600 179.453 C 319.390 178.204,318.400 177.006,318.400 176.791 C 318.400 176.576,318.120 176.400,317.778 176.400 C 317.436 176.400,316.096 175.320,314.800 174.000 C 313.504 172.680,312.237 171.600,311.983 171.600 C 311.729 171.600,311.017 171.060,310.400 170.400 C 309.783 169.740,309.115 169.200,308.915 169.200 C 308.715 169.200,308.202 168.885,307.775 168.500 C 307.349 168.115,306.460 167.530,305.800 167.200 C 305.140 166.870,304.251 166.285,303.825 165.900 C 303.398 165.515,302.813 165.200,302.525 165.200 C 302.236 165.200,302.000 165.020,302.000 164.800 C 302.000 164.580,301.640 164.400,301.200 164.400 C 300.760 164.400,300.400 164.220,300.400 164.000 C 300.400 163.780,300.040 163.600,299.600 163.600 C 299.160 163.600,298.800 163.420,298.800 163.200 C 298.800 162.980,298.440 162.800,298.000 162.800 C 297.560 162.800,297.200 162.620,297.200 162.400 C 297.200 162.180,296.840 162.000,296.400 162.000 C 295.960 162.000,295.600 161.820,295.600 161.600 C 295.600 161.380,295.240 161.200,294.800 161.200 C 294.360 161.200,294.000 161.040,294.000 160.845 C 294.000 160.649,293.325 160.362,292.501 160.208 C 290.717 159.873,290.414 159.482,290.406 157.500 C 290.403 156.675,290.220 156.000,290.000 156.000 C 289.769 156.000,289.600 154.741,289.600 153.024 C 289.600 151.387,289.420 149.936,289.200 149.800 C 288.980 149.664,288.800 148.573,288.800 147.376 C 288.800 146.179,288.620 145.200,288.400 145.200 C 288.180 145.200,288.000 144.480,288.000 143.600 C 288.000 142.720,287.820 142.000,287.600 142.000 C 287.380 142.000,287.200 141.460,287.200 140.800 C 287.200 140.140,287.020 139.600,286.800 139.600 C 286.580 139.600,286.400 139.060,286.400 138.400 C 286.400 137.740,286.220 137.200,286.000 137.200 C 285.780 137.200,285.600 136.660,285.600 136.000 C 285.600 135.340,285.420 134.800,285.200 134.800 C 284.980 134.800,284.800 134.440,284.800 134.000 C 284.800 133.560,284.620 133.200,284.400 133.200 C 284.180 133.200,284.000 132.840,284.000 132.400 C 284.000 131.960,283.820 131.600,283.600 131.600 C 283.380 131.600,283.200 131.240,283.200 130.800 C 283.200 130.360,283.020 130.000,282.800 130.000 C 282.580 130.000,282.400 129.730,282.400 129.400 C 282.400 129.070,282.220 128.800,282.000 128.800 C 281.780 128.800,281.600 128.530,281.600 128.200 C 281.600 127.870,281.420 127.600,281.200 127.600 C 280.980 127.600,280.800 127.417,280.800 127.193 C 280.800 126.786,275.800 121.600,275.408 121.600 C 275.295 121.600,274.437 120.880,273.503 120.000 C 272.569 119.120,271.578 118.400,271.302 118.400 C 271.026 118.400,270.800 118.220,270.800 118.000 C 270.800 117.780,270.522 117.600,270.183 117.600 C 269.844 117.600,269.180 117.240,268.708 116.800 C 268.236 116.360,267.613 116.000,267.325 116.000 C 267.036 116.000,266.800 115.820,266.800 115.600 C 266.800 115.380,266.440 115.200,266.000 115.200 C 265.560 115.200,265.200 115.020,265.200 114.800 C 265.200 114.580,264.840 114.400,264.400 114.400 C 263.960 114.400,263.600 114.220,263.600 114.000 C 263.600 113.780,263.240 113.600,262.800 113.600 C 262.360 113.600,262.000 113.420,262.000 113.200 C 262.000 112.980,261.728 112.800,261.395 112.800 C 261.062 112.800,260.477 112.643,260.095 112.450 C 256.857 110.819,255.710 110.389,253.984 110.160 C 252.893 110.015,252.000 109.740,252.000 109.548 C 252.000 109.357,251.280 109.200,250.400 109.200 C 249.520 109.200,248.800 109.020,248.800 108.800 C 248.800 108.580,248.260 108.400,247.600 108.400 C 246.940 108.400,246.400 108.220,246.400 108.000 C 246.400 107.780,245.680 107.600,244.800 107.600 C 243.920 107.600,243.200 107.420,243.200 107.200 C 243.200 106.980,242.390 106.800,241.400 106.800 C 240.410 106.800,239.600 106.620,239.600 106.400 C 239.600 106.180,238.700 106.000,237.600 106.000 C 236.500 106.000,235.600 105.820,235.600 105.600 C 235.600 105.378,234.533 105.200,233.200 105.200 C 231.867 105.200,230.800 105.022,230.800 104.800 C 230.800 104.571,229.600 104.400,228.000 104.400 C 226.400 104.400,225.200 104.229,225.200 104.000 C 225.200 103.780,224.581 103.600,223.824 103.600 C 223.067 103.600,222.336 103.420,222.200 103.200 C 222.064 102.980,221.333 102.800,220.576 102.800 C 219.819 102.800,219.200 102.620,219.200 102.400 C 219.200 102.180,218.966 102.000,218.680 102.000 C 217.944 102.000,216.007 101.059,216.003 100.700 C 216.001 100.535,215.718 100.400,215.374 100.400 C 215.030 100.400,213.903 99.545,212.871 98.500 C 210.541 96.142,207.409 93.600,206.833 93.600 C 206.595 93.600,206.400 93.420,206.400 93.200 C 206.400 92.980,205.770 92.800,205.000 92.800 C 204.230 92.800,203.600 92.980,203.600 93.200 M209.159 105.410 C 214.412 107.157,215.251 107.404,218.000 108.012 C 219.210 108.280,220.650 108.643,221.200 108.818 C 221.750 108.993,223.820 109.519,225.800 109.987 C 227.780 110.455,230.030 110.998,230.800 111.194 C 231.570 111.389,233.100 111.752,234.200 112.000 C 262.636 118.405,273.761 126.648,277.932 144.400 C 278.733 147.809,278.877 148.613,279.434 152.800 C 280.146 158.147,280.141 158.372,279.300 158.690 C 276.853 159.617,276.767 163.718,279.179 164.441 C 280.427 164.815,280.783 165.131,280.879 165.948 C 281.025 167.196,283.330 167.777,286.623 167.396 C 288.347 167.196,289.135 167.368,291.962 168.560 C 308.660 175.602,316.252 184.894,321.573 204.800 C 321.838 205.790,322.222 207.153,322.427 207.828 C 322.632 208.504,322.800 209.461,322.800 209.955 C 322.800 210.449,322.955 211.156,323.145 211.526 C 323.334 211.897,323.595 213.134,323.723 214.276 L 323.957 216.352 322.478 216.827 C 320.145 217.575,319.600 218.264,319.600 220.462 C 319.600 222.040,319.730 222.400,320.300 222.401 C 320.685 222.402,321.540 222.730,322.200 223.130 C 322.860 223.530,324.390 224.403,325.600 225.070 C 342.788 234.542,350.025 240.329,353.942 247.734 C 354.854 249.458,355.600 251.125,355.600 251.439 C 355.600 251.754,355.761 252.323,355.957 252.705 C 356.986 254.708,357.499 260.758,356.827 262.972 C 356.622 263.647,356.241 265.010,355.981 266.000 C 355.720 266.990,355.369 268.250,355.200 268.800 C 354.854 269.926,354.181 272.460,353.633 274.700 C 352.750 278.310,352.170 279.971,350.884 282.575 C 347.310 289.814,341.856 294.772,335.438 296.615 C 332.789 297.375,328.253 297.356,268.400 296.332 C 226.337 295.613,162.372 295.614,158.600 296.335 C 149.259 298.120,108.950 299.452,96.269 298.394 C 87.997 297.704,79.675 295.941,73.800 293.633 C 63.275 289.499,51.975 279.852,50.196 273.480 C 50.060 272.996,49.806 272.240,49.630 271.800 C 47.137 265.556,47.938 260.724,54.983 239.522 C 56.422 235.189,57.600 231.352,57.600 230.994 C 57.600 229.319,61.401 225.186,66.931 220.849 C 70.350 218.167,80.172 211.600,80.764 211.600 C 80.967 211.600,81.193 211.431,81.267 211.224 C 81.340 211.016,81.850 210.763,82.400 210.660 C 84.293 210.307,85.532 209.644,85.784 208.851 C 85.923 208.413,86.613 207.686,87.318 207.235 L 88.600 206.413 87.524 206.407 C 86.932 206.403,86.359 206.258,86.252 206.083 C 85.795 205.344,88.251 190.609,90.400 181.200 C 90.575 180.430,90.936 178.810,91.200 177.600 C 91.464 176.390,91.854 174.680,92.065 173.800 C 92.276 172.920,92.549 171.703,92.671 171.095 C 92.793 170.487,93.051 169.892,93.246 169.771 C 93.441 169.651,93.600 169.284,93.600 168.954 C 93.600 166.584,101.106 158.648,107.081 154.702 C 112.236 151.298,122.615 146.000,124.130 146.000 C 124.411 146.000,124.811 145.851,125.020 145.670 C 125.904 144.901,128.778 144.318,130.448 144.569 C 137.080 145.562,136.744 145.873,137.195 138.328 C 137.878 126.890,141.560 121.448,151.465 117.237 C 154.738 115.845,156.864 115.271,166.600 113.153 C 168.580 112.722,170.753 112.196,171.428 111.985 C 172.104 111.773,173.128 111.600,173.705 111.600 C 174.281 111.600,174.849 111.444,174.967 111.253 C 175.085 111.062,175.951 110.795,176.891 110.659 C 178.767 110.389,181.226 109.884,184.000 109.200 C 184.990 108.956,186.520 108.596,187.400 108.400 C 188.280 108.204,189.720 107.872,190.600 107.662 C 191.480 107.452,193.100 107.087,194.200 106.850 C 196.631 106.327,201.757 104.995,203.400 104.460 C 204.060 104.245,204.672 104.053,204.759 104.034 C 204.847 104.015,206.827 104.635,209.159 105.410 M205.600 169.998 C 205.050 170.182,203.344 170.724,201.809 171.201 C 192.509 174.094,184.882 180.703,179.420 190.600 C 178.813 191.700,178.184 192.780,178.021 193.000 C 177.859 193.220,177.413 194.210,177.030 195.200 C 176.648 196.190,176.103 197.540,175.821 198.200 C 174.840 200.492,173.136 206.680,172.460 210.400 C 169.058 229.133,171.413 237.521,182.414 245.856 C 192.857 253.768,211.058 254.898,221.000 248.252 C 236.735 237.734,244.078 203.802,234.725 184.832 C 231.656 178.608,225.616 173.293,219.000 170.995 C 215.420 169.751,207.989 169.198,205.600 169.998 M268.200 170.033 C 255.919 172.146,247.074 179.616,243.613 190.800 C 243.307 191.790,242.931 192.780,242.778 193.000 C 242.625 193.220,242.399 193.940,242.275 194.600 C 242.151 195.260,241.854 196.610,241.616 197.600 C 240.202 203.480,239.726 217.449,240.553 228.800 C 240.835 232.671,241.077 233.789,242.047 235.695 C 242.241 236.077,242.400 236.581,242.400 236.817 C 242.400 238.455,247.659 244.253,250.167 245.380 C 257.201 248.540,269.445 248.595,276.000 245.495 C 283.032 242.169,288.444 235.586,291.205 227.000 C 291.700 225.460,292.243 223.840,292.411 223.400 C 293.688 220.056,294.958 208.751,294.971 200.600 C 294.981 194.850,294.267 189.175,293.212 186.600 C 288.091 174.108,279.107 168.158,268.200 170.033 M216.834 178.836 C 222.349 180.632,222.363 182.332,216.871 183.017 C 213.174 183.479,209.652 185.596,204.996 190.158 C 198.757 196.270,197.779 198.964,197.865 209.800 C 198.027 230.007,202.841 237.586,216.000 238.348 L 220.600 238.615 219.106 240.075 C 213.492 245.561,199.226 246.491,190.305 241.953 C 189.923 241.759,189.383 241.599,189.105 241.598 C 187.751 241.594,182.207 236.526,180.874 234.074 C 178.945 230.523,178.703 229.821,177.892 225.400 C 177.312 222.241,177.311 210.152,177.890 206.600 C 179.932 194.081,185.319 186.058,194.675 181.604 C 196.174 180.891,197.670 180.176,198.000 180.015 C 198.330 179.854,199.590 179.496,200.800 179.219 C 202.010 178.942,203.270 178.565,203.600 178.381 C 204.931 177.640,214.133 177.956,216.834 178.836 M274.973 178.854 C 277.902 179.885,279.319 180.797,281.300 182.924 C 283.334 185.109,283.341 185.104,278.782 184.885 C 270.550 184.488,261.681 188.799,258.739 194.627 C 258.414 195.272,257.955 196.160,257.720 196.600 C 256.004 199.816,255.353 202.445,254.669 208.927 C 254.113 214.200,254.578 219.044,255.983 222.600 C 259.057 230.384,262.973 234.447,269.110 236.218 C 272.655 237.242,272.258 237.923,267.172 239.545 C 265.332 240.131,258.771 240.134,257.319 239.549 C 254.179 238.285,252.576 237.269,251.129 235.624 C 247.428 231.420,246.200 226.381,246.200 215.400 C 246.200 204.128,247.384 197.892,250.838 190.964 C 253.977 184.669,261.210 178.800,265.830 178.800 C 266.337 178.800,266.864 178.620,267.000 178.400 C 267.452 177.669,272.407 177.951,274.973 178.854 M203.741 264.495 C 204.288 266.586,201.743 271.464,199.383 272.848 C 198.096 273.603,193.704 273.859,192.495 273.250 C 192.113 273.058,191.016 272.496,190.058 272.001 C 187.333 270.594,183.198 270.379,183.207 271.645 C 183.234 275.645,191.412 280.014,197.898 279.493 L 200.595 279.276 202.398 281.164 C 207.014 285.998,211.675 287.687,221.016 287.912 C 230.585 288.142,234.982 286.611,241.215 280.878 L 243.767 278.531 240.414 278.273 C 237.092 278.017,237.043 278.027,235.031 279.361 C 231.697 281.572,228.311 282.400,222.600 282.400 C 215.704 282.400,213.229 281.627,208.027 277.846 L 205.854 276.267 207.067 275.234 C 210.172 272.588,211.693 267.854,210.148 265.647 C 208.740 263.638,203.259 262.652,203.741 264.495 M271.600 303.935 C 278.750 304.177,290.090 304.672,296.800 305.035 C 303.510 305.398,312.600 305.808,317.000 305.947 L 325.000 306.200 325.355 316.400 C 325.917 332.534,325.879 350.830,325.274 355.200 C 324.985 357.290,324.582 360.440,324.379 362.200 C 324.175 363.960,323.835 366.120,323.622 367.000 C 323.410 367.880,323.115 369.106,322.967 369.724 C 322.819 370.342,321.838 371.788,320.788 372.937 L 318.878 375.027 313.939 375.508 C 307.584 376.126,199.332 376.539,157.049 376.106 L 127.097 375.800 125.424 373.400 C 122.001 368.491,118.141 361.545,109.197 344.200 C 105.815 337.641,104.084 334.474,99.923 327.231 C 99.490 326.478,98.431 324.823,97.568 323.553 C 96.706 322.283,96.000 321.069,96.000 320.855 C 96.000 320.642,95.853 320.407,95.672 320.333 C 95.492 320.260,94.559 319.030,93.599 317.600 C 91.357 314.261,87.964 309.969,85.452 307.296 C 82.979 304.662,83.143 304.518,87.699 305.326 C 97.294 307.026,100.882 307.034,151.400 305.454 C 177.360 304.642,201.750 303.832,205.600 303.655 C 215.041 303.218,255.516 303.390,271.600 303.935 " stroke="none" fill="#060505" fill-rule="evenodd"></path><path id="path1" d="M203.400 105.159 C 201.716 105.869,199.702 106.400,198.695 106.400 C 198.119 106.400,197.536 106.580,197.400 106.800 C 197.264 107.020,196.454 107.200,195.600 107.200 C 194.746 107.200,193.948 107.361,193.826 107.558 C 193.705 107.755,192.929 108.010,192.103 108.125 C 191.276 108.240,189.790 108.539,188.800 108.789 C 186.093 109.473,180.414 110.729,178.600 111.045 C 177.940 111.160,177.040 111.408,176.600 111.595 C 176.160 111.783,175.170 112.039,174.400 112.165 C 173.630 112.291,172.190 112.586,171.200 112.822 C 170.210 113.057,168.860 113.340,168.200 113.452 C 167.540 113.563,166.640 113.811,166.200 114.002 C 165.760 114.194,164.770 114.442,164.000 114.553 C 162.207 114.812,159.389 115.426,157.600 115.947 C 156.830 116.171,155.570 116.518,154.800 116.718 C 149.632 118.057,143.834 121.884,141.343 125.600 C 138.821 129.364,138.058 132.267,137.667 139.600 C 137.520 142.350,137.254 144.825,137.076 145.100 C 136.658 145.746,132.306 145.762,130.543 145.125 C 129.579 144.776,128.985 144.766,128.314 145.086 C 127.811 145.326,126.320 145.920,125.000 146.407 C 117.597 149.135,108.467 154.030,103.455 157.957 C 101.653 159.369,96.560 164.755,95.999 165.843 C 95.670 166.479,95.311 167.090,95.200 167.200 C 95.089 167.310,94.753 167.940,94.453 168.600 C 94.152 169.260,93.748 170.113,93.553 170.495 C 93.359 170.877,93.200 171.721,93.200 172.371 C 93.200 173.021,93.020 173.664,92.800 173.800 C 92.580 173.936,92.400 174.631,92.400 175.344 C 92.400 176.057,92.238 176.811,92.041 177.020 C 91.844 177.229,91.584 178.120,91.464 179.000 C 91.088 181.751,90.758 183.371,90.403 184.200 C 90.090 184.933,89.865 186.159,89.341 190.000 C 89.236 190.770,88.992 191.760,88.798 192.200 C 88.604 192.640,88.360 193.720,88.255 194.600 C 88.150 195.480,87.842 197.820,87.570 199.800 C 86.835 205.162,86.847 205.316,87.998 205.594 C 89.449 205.945,89.471 207.013,88.041 207.646 C 87.381 207.938,86.619 208.590,86.349 209.095 C 85.780 210.158,83.894 211.200,82.539 211.200 C 82.022 211.200,81.600 211.350,81.600 211.532 C 81.600 211.715,81.105 212.120,80.500 212.432 C 79.895 212.745,79.051 213.315,78.625 213.700 C 78.198 214.085,77.716 214.400,77.553 214.400 C 76.809 214.400,67.699 220.869,64.605 223.595 C 59.890 227.748,58.000 230.259,58.000 232.371 C 58.000 233.021,57.820 233.664,57.600 233.800 C 57.380 233.936,57.200 234.399,57.200 234.829 C 57.200 235.259,57.036 235.923,56.835 236.305 C 56.634 236.687,55.478 240.150,54.265 244.000 C 51.145 253.905,50.553 255.910,50.014 258.400 C 49.753 259.610,49.372 261.153,49.169 261.828 C 47.150 268.546,54.207 281.824,62.356 286.637 C 63.040 287.042,63.600 287.514,63.600 287.686 C 63.600 287.859,63.793 288.000,64.028 288.000 C 64.263 288.000,65.208 288.502,66.128 289.116 C 67.698 290.163,70.529 291.598,72.800 292.497 C 73.350 292.715,74.113 293.052,74.495 293.247 C 74.877 293.441,75.464 293.600,75.800 293.600 C 76.136 293.600,76.723 293.758,77.105 293.951 C 78.233 294.520,80.596 295.200,81.448 295.200 C 81.884 295.200,82.411 295.362,82.620 295.559 C 82.989 295.907,84.218 296.124,88.800 296.647 C 90.010 296.785,91.217 297.071,91.482 297.283 C 93.261 298.704,142.609 297.734,156.400 296.007 C 166.378 294.757,198.027 294.464,237.600 295.256 C 249.150 295.487,271.650 295.841,287.600 296.043 C 303.550 296.245,319.750 296.512,323.600 296.637 C 330.369 296.856,335.597 296.414,336.580 295.538 C 336.789 295.352,337.184 295.200,337.459 295.200 C 338.322 295.200,342.669 292.464,344.289 290.900 C 347.744 287.567,351.285 281.218,352.601 276.000 C 352.962 274.570,353.621 272.050,354.067 270.400 C 354.512 268.750,354.971 266.860,355.088 266.200 C 355.205 265.540,355.503 264.747,355.750 264.438 C 356.347 263.692,356.255 254.495,355.644 253.884 C 355.400 253.640,355.200 253.114,355.200 252.715 C 355.200 252.316,355.035 251.677,354.833 251.295 C 354.632 250.913,354.243 249.999,353.970 249.264 C 352.738 245.950,348.952 241.250,345.341 238.552 C 344.494 237.918,343.550 237.163,343.244 236.873 C 342.427 236.098,336.257 232.034,332.800 229.995 C 331.150 229.021,329.710 228.128,329.600 228.010 C 329.490 227.892,328.230 227.187,326.800 226.444 C 325.370 225.700,323.390 224.667,322.400 224.148 C 321.410 223.628,320.371 223.203,320.090 223.202 C 319.810 223.201,319.405 222.738,319.190 222.174 C 318.204 219.580,319.265 217.237,321.806 216.398 C 323.311 215.901,323.528 215.184,322.843 212.960 C 322.647 212.322,322.271 210.720,322.008 209.400 C 321.745 208.080,321.365 206.687,321.165 206.305 C 320.964 205.923,320.800 205.257,320.800 204.824 C 320.800 204.392,320.636 203.624,320.436 203.119 C 320.236 202.613,319.758 201.120,319.375 199.800 C 318.297 196.093,316.060 190.479,314.977 188.764 C 314.440 187.912,314.000 187.060,314.000 186.870 C 314.000 186.680,313.640 186.198,313.200 185.800 C 312.760 185.402,312.400 184.922,312.400 184.735 C 312.400 184.289,310.751 182.401,307.942 179.628 C 301.441 173.213,291.126 167.685,286.603 168.191 C 282.982 168.596,280.642 167.994,280.399 166.597 C 280.220 165.561,279.960 165.353,278.447 165.034 L 276.701 164.666 276.903 162.152 C 277.096 159.748,277.767 158.400,278.771 158.400 C 279.197 158.400,279.388 157.767,279.193 157.000 C 279.137 156.780,278.939 155.160,278.753 153.400 C 278.567 151.640,278.222 149.210,277.987 148.000 C 277.752 146.790,277.459 145.124,277.337 144.297 C 277.215 143.471,276.955 142.695,276.758 142.574 C 276.561 142.452,276.400 141.823,276.400 141.176 C 276.400 140.529,276.220 140.000,276.000 140.000 C 275.780 140.000,275.600 139.561,275.600 139.024 C 275.600 138.487,275.420 137.936,275.200 137.800 C 274.980 137.664,274.800 137.203,274.800 136.776 C 274.800 136.349,274.620 136.000,274.400 136.000 C 274.180 136.000,274.000 135.640,274.000 135.200 C 274.000 134.760,273.854 134.400,273.675 134.400 C 273.496 134.400,273.102 133.770,272.800 133.000 C 272.498 132.230,272.104 131.600,271.925 131.600 C 271.746 131.600,271.600 131.369,271.600 131.087 C 271.600 130.056,267.570 126.278,263.762 123.740 C 259.537 120.924,250.635 116.800,248.783 116.800 C 248.440 116.800,247.989 116.651,247.780 116.470 C 247.571 116.288,246.590 115.916,245.600 115.642 C 244.610 115.369,243.247 114.978,242.572 114.773 C 241.896 114.568,240.962 114.400,240.495 114.400 C 240.029 114.400,239.548 114.240,239.427 114.044 C 239.220 113.708,238.207 113.472,234.697 112.942 C 233.871 112.818,233.095 112.555,232.974 112.358 C 232.852 112.161,232.054 112.000,231.200 112.000 C 230.346 112.000,229.536 111.820,229.400 111.600 C 229.264 111.380,228.544 111.200,227.800 111.200 C 227.056 111.200,226.336 111.020,226.200 110.800 C 226.064 110.580,225.344 110.400,224.600 110.400 C 223.856 110.400,223.136 110.220,223.000 110.000 C 222.864 109.780,222.144 109.600,221.400 109.600 C 220.656 109.600,219.936 109.420,219.800 109.200 C 219.664 108.980,218.944 108.800,218.200 108.800 C 217.456 108.800,216.736 108.620,216.600 108.400 C 216.464 108.180,215.834 108.000,215.200 108.000 C 214.566 108.000,213.936 107.820,213.800 107.600 C 213.664 107.380,213.111 107.200,212.571 107.200 C 212.031 107.200,211.277 107.044,210.895 106.853 C 208.053 105.432,204.603 104.652,203.400 105.159 M218.425 170.040 C 227.445 173.001,235.956 181.758,237.449 189.615 C 237.594 190.377,237.846 191.180,238.009 191.400 C 238.559 192.143,238.873 194.973,239.116 201.400 C 239.334 207.162,239.387 207.521,239.650 205.000 C 239.950 202.118,240.415 199.542,241.200 196.400 C 241.447 195.410,241.749 194.103,241.871 193.495 C 241.993 192.887,242.251 192.292,242.446 192.171 C 242.641 192.051,242.800 191.601,242.800 191.171 C 242.800 190.741,242.960 190.077,243.156 189.695 C 243.352 189.313,243.937 188.100,244.456 187.000 C 244.975 185.900,245.535 184.940,245.700 184.867 C 245.865 184.793,246.000 184.558,246.000 184.345 C 246.000 182.588,253.882 174.006,255.500 174.001 C 255.775 174.001,256.003 173.865,256.006 173.700 C 256.016 173.250,260.594 171.189,263.200 170.463 C 263.970 170.248,265.243 169.876,266.028 169.636 C 274.004 167.201,284.469 171.164,289.584 178.556 C 289.905 179.020,290.386 179.624,290.653 179.898 C 290.921 180.172,291.619 181.432,292.205 182.698 C 292.790 183.964,293.434 185.313,293.635 185.695 C 293.836 186.077,294.000 186.716,294.000 187.115 C 294.000 187.514,294.162 188.011,294.359 188.220 C 295.068 188.970,295.306 192.351,295.317 201.800 C 295.328 210.785,295.076 214.189,294.003 219.600 C 293.763 220.810,293.464 222.387,293.339 223.104 C 293.214 223.821,292.951 224.506,292.756 224.627 C 292.560 224.748,292.400 225.276,292.400 225.800 C 292.400 226.324,292.220 226.864,292.000 227.000 C 291.780 227.136,291.600 227.570,291.600 227.966 C 291.600 228.578,290.300 231.312,287.715 236.135 C 286.132 239.089,279.625 244.757,276.400 245.992 C 275.630 246.287,274.829 246.679,274.620 246.864 C 274.411 247.049,273.914 247.200,273.515 247.200 C 273.116 247.200,272.477 247.365,272.095 247.567 C 269.344 249.019,255.759 249.013,254.220 247.559 C 254.011 247.362,253.514 247.200,253.115 247.200 C 252.716 247.200,252.077 247.041,251.695 246.847 C 251.313 246.652,250.470 246.247,249.822 245.947 C 248.436 245.304,243.600 240.728,243.600 240.060 C 243.600 239.807,243.420 239.600,243.200 239.600 C 242.980 239.600,242.800 239.330,242.800 239.000 C 242.800 238.670,242.620 238.400,242.400 238.400 C 242.180 238.400,242.000 238.128,242.000 237.795 C 242.000 237.462,241.841 236.877,241.647 236.495 C 240.354 233.953,240.124 232.687,239.598 225.200 C 239.404 222.450,239.106 219.030,238.934 217.600 L 238.622 215.000 238.334 217.000 C 236.090 232.568,228.424 245.582,218.688 250.355 C 204.602 257.259,183.723 251.950,174.816 239.200 C 174.279 238.430,173.729 237.710,173.595 237.600 C 171.697 236.042,169.792 228.707,170.146 224.314 C 170.847 215.600,171.405 211.405,172.422 207.200 C 172.662 206.210,172.955 204.813,173.073 204.096 C 173.192 203.379,173.449 202.694,173.644 202.573 C 173.840 202.452,174.000 201.924,174.000 201.400 C 174.000 200.876,174.180 200.336,174.400 200.200 C 174.620 200.064,174.800 199.601,174.800 199.171 C 174.800 198.741,174.962 198.077,175.159 197.695 C 175.357 197.313,176.295 195.380,177.244 193.400 C 180.435 186.742,186.198 179.296,190.400 176.403 C 191.170 175.872,191.890 175.316,192.000 175.166 C 192.420 174.592,200.049 170.800,200.782 170.800 C 201.206 170.800,201.664 170.620,201.800 170.400 C 201.936 170.180,202.532 169.997,203.124 169.994 C 203.716 169.991,204.470 169.813,204.800 169.600 C 206.017 168.814,215.636 169.124,218.425 170.040 M268.500 179.094 C 269.545 179.176,271.255 179.176,272.300 179.094 C 273.345 179.012,272.490 178.944,270.400 178.944 C 268.310 178.944,267.455 179.012,268.500 179.094 M276.810 180.126 C 277.409 180.774,280.095 182.397,279.618 181.822 C 279.310 181.451,278.505 180.866,277.829 180.523 C 277.153 180.179,276.695 180.001,276.810 180.126 M215.800 182.400 C 215.296 182.617,215.222 182.744,215.600 182.744 C 215.930 182.744,216.560 182.589,217.000 182.400 C 217.504 182.183,217.578 182.056,217.200 182.056 C 216.870 182.056,216.240 182.211,215.800 182.400 M212.900 183.212 C 211.561 183.751,211.811 184.024,213.200 183.540 C 213.860 183.310,214.400 183.049,214.400 182.961 C 214.400 182.724,213.913 182.805,212.900 183.212 M280.737 183.286 C 281.235 183.922,280.977 183.981,277.137 184.101 L 273.000 184.231 277.300 184.316 C 281.585 184.400,282.229 184.191,280.900 183.149 C 280.269 182.654,280.253 182.667,280.737 183.286 M187.210 187.390 C 186.020 188.595,185.126 189.630,185.223 189.690 C 185.321 189.751,186.409 188.765,187.641 187.500 C 188.874 186.235,189.768 185.200,189.628 185.200 C 189.487 185.200,188.399 186.186,187.210 187.390 M206.181 188.100 L 204.600 189.800 206.394 188.200 C 207.380 187.320,208.265 186.555,208.361 186.500 C 208.456 186.445,208.360 186.400,208.148 186.400 C 207.936 186.400,207.051 187.165,206.181 188.100 M265.500 187.029 C 263.949 187.870,264.125 188.161,265.700 187.359 C 267.208 186.593,267.475 186.394,266.967 186.416 C 266.765 186.425,266.105 186.701,265.500 187.029 M253.123 187.900 C 252.418 188.721,251.890 189.600,252.101 189.600 C 252.183 189.600,252.649 189.060,253.137 188.400 C 254.101 187.096,254.092 186.772,253.123 187.900 M202.175 191.700 L 201.000 193.000 202.300 191.825 C 203.512 190.730,203.784 190.400,203.475 190.400 C 203.406 190.400,202.821 190.985,202.175 191.700 M248.446 198.067 C 248.421 198.434,248.296 199.064,248.170 199.467 C 247.952 200.162,247.963 200.163,248.397 199.487 C 248.648 199.096,248.773 198.466,248.673 198.087 C 248.511 197.468,248.488 197.466,248.446 198.067 M247.450 202.850 C 247.117 204.517,247.440 204.840,247.800 203.200 C 247.952 202.509,247.993 201.859,247.891 201.758 C 247.789 201.656,247.591 202.147,247.450 202.850 M254.649 202.615 C 254.512 202.973,254.415 203.566,254.434 203.933 C 254.453 204.300,254.627 204.069,254.821 203.420 C 255.198 202.158,255.065 201.533,254.649 202.615 M178.846 204.067 C 178.821 204.434,178.696 205.064,178.570 205.467 C 178.352 206.162,178.363 206.163,178.797 205.487 C 179.048 205.096,179.173 204.466,179.073 204.087 C 178.911 203.468,178.888 203.466,178.846 204.067 M196.870 209.200 C 196.838 211.950,196.944 214.409,197.106 214.664 C 197.268 214.918,197.350 213.208,197.289 210.864 C 197.121 204.371,196.935 203.632,196.870 209.200 M246.914 208.200 C 246.917 209.300,246.995 209.703,247.087 209.095 C 247.179 208.486,247.177 207.586,247.082 207.095 C 246.987 206.603,246.911 207.100,246.914 208.200 M253.751 212.400 C 253.751 214.930,253.816 215.965,253.896 214.700 C 253.975 213.435,253.975 211.365,253.896 210.100 C 253.816 208.835,253.751 209.870,253.751 212.400 M177.859 211.300 C 177.552 213.855,177.588 218.229,177.940 221.200 C 178.093 222.496,178.200 220.483,178.200 216.300 C 178.200 208.333,178.206 208.416,177.859 211.300 M246.528 212.800 C 246.528 214.230,246.601 214.815,246.689 214.100 C 246.778 213.385,246.778 212.215,246.689 211.500 C 246.601 210.785,246.528 211.370,246.528 212.800 M246.680 220.600 C 246.799 222.580,246.965 224.275,247.048 224.367 C 247.312 224.656,247.144 221.085,246.796 219.000 C 246.551 217.527,246.520 217.948,246.680 220.600 M203.200 234.200 C 203.946 234.970,204.647 235.600,204.757 235.600 C 204.867 235.600,204.346 234.970,203.600 234.200 C 202.854 233.430,202.153 232.800,202.043 232.800 C 201.933 232.800,202.454 233.430,203.200 234.200 M182.800 235.962 C 182.800 236.116,183.430 236.854,184.200 237.600 C 184.970 238.346,185.600 238.850,185.600 238.718 C 185.600 238.587,184.970 237.850,184.200 237.080 C 183.430 236.310,182.800 235.807,182.800 235.962 M214.100 239.091 C 214.925 239.178,216.275 239.178,217.100 239.091 C 217.925 239.005,217.250 238.934,215.600 238.934 C 213.950 238.934,213.275 239.005,214.100 239.091 M262.200 239.200 L 258.600 239.449 262.000 239.485 C 263.870 239.504,265.850 239.376,266.400 239.200 C 267.552 238.831,267.537 238.831,262.200 239.200 M200.210 244.072 C 202.231 244.430,208.784 244.430,209.678 244.072 C 210.051 243.922,207.715 243.798,204.488 243.795 C 200.993 243.792,199.263 243.904,200.210 244.072 M209.114 263.894 C 209.711 264.276,210.419 264.861,210.687 265.194 C 211.274 265.924,211.366 270.650,210.800 271.000 C 210.580 271.136,210.400 271.505,210.400 271.819 C 210.400 272.427,209.668 273.452,207.927 275.280 L 206.854 276.407 209.127 277.929 C 217.112 283.275,229.487 283.409,235.400 278.214 C 236.419 277.319,236.857 277.193,238.300 277.380 C 239.235 277.501,240.855 277.701,241.900 277.824 C 244.986 278.187,245.040 278.267,243.288 279.917 C 237.947 284.947,231.787 288.400,228.153 288.400 C 227.497 288.400,226.768 288.592,226.532 288.828 C 226.259 289.101,224.675 289.187,222.152 289.066 C 212.904 288.622,206.967 286.564,202.660 282.311 L 200.321 280.000 196.260 279.994 C 193.608 279.990,191.645 279.777,190.600 279.380 C 189.720 279.045,188.685 278.667,188.300 278.539 C 187.915 278.411,187.600 278.148,187.600 277.953 C 187.600 277.759,187.375 277.598,187.100 277.595 C 185.729 277.581,181.576 271.409,182.228 270.354 C 182.737 269.531,189.030 270.215,190.000 271.199 C 190.110 271.310,190.740 271.647,191.400 271.947 C 192.060 272.248,192.913 272.652,193.295 272.847 C 197.056 274.760,202.800 270.349,202.800 265.547 C 202.800 264.550,202.920 263.613,203.067 263.467 C 203.642 262.891,208.031 263.202,209.114 263.894 " stroke="none" fill="#fbb3b3" fill-rule="evenodd"></path><path id="path2" d="M186.000 109.200 C 185.176 109.464,185.141 109.526,185.800 109.554 C 186.240 109.573,186.870 109.413,187.200 109.200 C 187.901 108.747,187.414 108.747,186.000 109.200 M178.800 110.800 C 177.976 111.064,177.941 111.126,178.600 111.154 C 179.040 111.173,179.670 111.013,180.000 110.800 C 180.701 110.347,180.214 110.347,178.800 110.800 M168.200 113.200 C 167.093 113.482,167.077 113.509,168.000 113.547 C 168.550 113.569,169.270 113.413,169.600 113.200 C 170.281 112.760,169.929 112.760,168.200 113.200 M236.400 113.182 C 236.730 113.405,237.345 113.591,237.767 113.594 C 238.790 113.602,238.471 113.373,237.000 113.044 C 236.124 112.848,235.962 112.885,236.400 113.182 M164.800 114.000 L 163.400 114.295 164.676 114.347 C 165.378 114.376,166.064 114.220,166.200 114.000 C 166.336 113.780,166.392 113.624,166.324 113.653 C 166.256 113.682,165.570 113.838,164.800 114.000 M160.800 114.800 C 159.416 115.091,159.414 115.095,160.600 115.141 C 161.260 115.167,162.070 115.013,162.400 114.800 C 163.066 114.370,162.845 114.370,160.800 114.800 M242.400 114.782 C 242.730 115.005,243.345 115.191,243.767 115.194 C 244.790 115.202,244.471 114.973,243.000 114.644 C 242.124 114.448,241.962 114.485,242.400 114.782 M157.400 115.609 C 155.106 116.234,153.803 116.731,154.372 116.766 C 154.930 116.799,157.004 116.215,158.600 115.575 C 159.620 115.166,158.958 115.184,157.400 115.609 M144.785 121.629 L 143.400 122.858 144.900 121.781 C 146.226 120.830,146.657 120.400,146.285 120.400 C 146.222 120.400,145.547 120.953,144.785 121.629 M137.850 133.650 C 137.517 135.317,137.840 135.640,138.200 134.000 C 138.352 133.309,138.393 132.659,138.291 132.558 C 138.189 132.456,137.991 132.947,137.850 133.650 M137.232 143.671 C 137.214 144.041,136.917 144.626,136.571 144.971 C 136.226 145.317,136.129 145.600,136.357 145.600 C 136.912 145.600,137.702 144.078,137.458 143.478 C 137.348 143.208,137.249 143.292,137.232 143.671 M278.068 148.600 C 278.062 149.040,278.211 149.760,278.400 150.200 C 278.838 151.219,278.838 150.168,278.400 148.800 C 278.143 147.996,278.077 147.957,278.068 148.600 M113.500 151.227 C 112.675 151.663,112.000 152.108,112.000 152.218 C 112.000 152.327,112.720 152.049,113.600 151.600 C 114.480 151.151,115.200 150.697,115.200 150.592 C 115.200 150.330,115.197 150.331,113.500 151.227 M110.300 153.029 C 108.805 153.840,108.896 154.178,110.400 153.400 C 111.060 153.059,111.600 152.694,111.600 152.590 C 111.600 152.332,111.557 152.347,110.300 153.029 M278.901 154.600 C 278.905 155.480,278.987 155.793,279.083 155.295 C 279.179 154.798,279.175 154.078,279.075 153.695 C 278.975 153.313,278.896 153.720,278.901 154.600 M99.201 161.398 C 98.686 161.948,98.339 162.464,98.432 162.546 C 98.524 162.628,99.019 162.178,99.530 161.547 C 100.676 160.135,100.474 160.044,99.201 161.398 M276.870 162.700 C 276.811 164.462,276.913 164.799,277.500 164.794 C 277.966 164.790,278.042 164.687,277.728 164.487 C 277.468 164.322,277.184 163.380,277.097 162.393 L 276.940 160.600 276.870 162.700 M284.300 168.282 C 284.795 168.378,285.605 168.378,286.100 168.282 C 286.595 168.187,286.190 168.109,285.200 168.109 C 284.210 168.109,283.805 168.187,284.300 168.282 M206.000 169.447 C 208.117 169.716,217.538 169.786,216.887 169.528 C 216.509 169.379,213.680 169.271,210.600 169.288 C 207.520 169.306,205.450 169.377,206.000 169.447 M269.317 169.497 C 270.811 169.574,273.151 169.574,274.517 169.496 C 275.882 169.418,274.660 169.355,271.800 169.355 C 268.940 169.356,267.822 169.420,269.317 169.497 M201.845 170.328 C 201.733 170.508,202.173 170.577,202.821 170.482 C 203.470 170.387,204.000 170.240,204.000 170.155 C 204.000 169.850,202.043 170.007,201.845 170.328 M222.400 171.758 C 222.400 171.853,223.214 172.387,224.209 172.943 C 225.205 173.499,225.912 173.782,225.782 173.571 C 225.523 173.152,222.400 171.477,222.400 171.758 M258.300 172.229 C 256.749 173.070,256.925 173.361,258.500 172.559 C 260.008 171.793,260.275 171.594,259.767 171.616 C 259.565 171.625,258.905 171.901,258.300 172.229 M229.183 176.500 C 230.164 177.545,231.019 178.400,231.083 178.400 C 231.384 178.400,231.066 178.041,229.300 176.383 L 227.400 174.600 229.183 176.500 M251.600 176.925 C 250.830 177.643,249.754 178.764,249.209 179.416 C 248.664 180.067,249.339 179.526,250.709 178.213 C 252.976 176.039,253.397 175.582,253.100 175.609 C 253.045 175.614,252.370 176.206,251.600 176.925 M286.800 175.725 C 286.800 175.794,287.385 176.379,288.100 177.025 L 289.400 178.200 288.225 176.900 C 287.130 175.688,286.800 175.416,286.800 175.725 M91.000 180.000 C 90.850 180.473,90.817 180.950,90.927 181.060 C 91.037 181.170,91.250 180.873,91.400 180.400 C 91.550 179.927,91.583 179.450,91.473 179.340 C 91.363 179.230,91.150 179.527,91.000 180.000 M232.575 180.532 C 233.191 181.339,233.776 182.000,233.875 182.000 C 234.153 182.000,232.421 179.660,231.909 179.344 C 231.659 179.189,231.959 179.724,232.575 180.532 M290.400 179.847 C 290.400 180.067,290.664 180.596,290.987 181.024 C 291.310 181.451,291.575 181.620,291.575 181.400 C 291.575 181.180,291.310 180.651,290.987 180.224 C 290.664 179.796,290.400 179.627,290.400 179.847 M310.801 182.600 C 311.351 183.260,311.845 183.875,311.900 183.967 C 311.955 184.058,312.088 184.045,312.196 183.938 C 312.304 183.830,311.809 183.215,311.097 182.571 L 309.803 181.400 310.801 182.600 M89.429 187.429 C 89.281 188.015,89.238 188.572,89.332 188.666 C 89.427 188.760,89.624 188.358,89.771 187.771 C 89.919 187.185,89.962 186.628,89.868 186.534 C 89.773 186.440,89.576 186.842,89.429 187.429 M294.028 188.276 C 294.118 189.315,294.744 190.196,294.772 189.324 C 294.787 188.842,294.620 188.336,294.400 188.200 C 294.180 188.064,294.013 188.098,294.028 188.276 M315.160 189.000 C 315.834 190.305,316.388 191.028,316.385 190.600 C 316.383 190.380,316.014 189.750,315.564 189.200 C 315.021 188.536,314.885 188.469,315.160 189.000 M295.082 193.221 C 295.208 194.199,295.375 195.075,295.455 195.167 C 295.781 195.542,295.560 192.555,295.221 192.021 C 294.984 191.646,294.935 192.070,295.082 193.221 M316.814 192.454 C 316.806 192.594,317.063 193.314,317.384 194.054 C 317.706 194.794,317.969 195.130,317.970 194.800 C 317.972 194.224,316.843 191.934,316.814 192.454 M238.662 195.800 C 238.796 196.680,238.972 197.475,239.053 197.567 C 239.356 197.910,239.129 195.768,238.781 195.000 C 238.529 194.442,238.493 194.685,238.662 195.800 M87.873 195.353 C 87.723 195.745,87.611 196.366,87.625 196.733 C 87.642 197.175,87.781 197.074,88.037 196.434 C 88.249 195.903,88.361 195.282,88.285 195.054 C 88.209 194.827,88.024 194.961,87.873 195.353 M240.649 198.215 C 240.512 198.573,240.415 199.166,240.434 199.533 C 240.453 199.900,240.627 199.669,240.821 199.020 C 241.198 197.758,241.065 197.133,240.649 198.215 M87.069 200.756 C 86.921 201.495,86.820 202.483,86.844 202.950 C 86.868 203.418,87.047 202.990,87.242 202.000 C 87.437 201.010,87.538 200.023,87.467 199.806 C 87.396 199.590,87.217 200.017,87.069 200.756 M320.006 201.833 C 320.009 202.255,320.195 202.870,320.418 203.200 C 320.715 203.638,320.752 203.476,320.556 202.600 C 320.227 201.129,319.998 200.810,320.006 201.833 M239.849 202.215 C 239.712 202.573,239.621 203.526,239.647 204.333 C 239.690 205.683,239.720 205.642,240.026 203.813 C 240.368 201.770,240.290 201.067,239.849 202.215 M86.800 205.635 C 86.800 205.836,87.250 206.000,87.800 206.000 C 88.983 206.000,89.043 206.264,88.100 207.325 C 87.418 208.093,87.424 208.099,88.309 207.557 C 88.809 207.250,89.169 206.743,89.109 206.429 C 88.989 205.799,86.800 205.046,86.800 205.635 M172.649 205.815 C 172.512 206.173,172.415 206.766,172.434 207.133 C 172.453 207.500,172.627 207.269,172.821 206.620 C 173.198 205.358,173.065 204.733,172.649 205.815 M295.278 207.650 C 295.235 208.888,295.105 210.507,294.989 211.250 C 294.797 212.479,294.817 212.512,295.206 211.621 C 295.441 211.082,295.571 209.462,295.495 208.021 L 295.357 205.400 295.278 207.650 M321.668 207.800 C 321.662 208.240,321.811 208.960,322.000 209.400 C 322.438 210.419,322.438 209.368,322.000 208.000 C 321.743 207.196,321.677 207.157,321.668 207.800 M239.309 209.200 C 239.309 210.190,239.387 210.595,239.482 210.100 C 239.578 209.605,239.578 208.795,239.482 208.300 C 239.387 207.805,239.309 208.210,239.309 209.200 M171.856 209.284 C 171.721 209.788,171.627 210.560,171.646 211.000 C 171.665 211.440,171.845 211.098,172.046 210.240 C 172.436 208.578,172.270 207.740,171.856 209.284 M171.056 213.684 C 170.921 214.188,170.831 215.230,170.855 216.000 C 170.889 217.069,170.975 216.880,171.218 215.202 C 171.553 212.892,171.472 212.133,171.056 213.684 M238.649 215.900 C 238.790 217.165,239.057 218.920,239.242 219.800 C 239.565 221.330,239.572 221.315,239.390 219.444 C 239.285 218.368,239.200 216.613,239.200 215.544 C 239.200 214.475,239.018 213.600,238.797 213.600 C 238.542 213.600,238.488 214.451,238.649 215.900 M294.460 215.667 C 294.427 216.254,294.296 217.064,294.170 217.467 C 293.952 218.160,293.965 218.161,294.395 217.490 C 294.646 217.099,294.777 216.289,294.686 215.690 L 294.520 214.600 294.460 215.667 M319.629 217.854 C 319.103 218.523,318.818 219.436,318.850 220.354 L 318.900 221.800 319.175 220.114 C 319.326 219.187,319.782 218.062,320.187 217.614 C 320.592 217.166,320.819 216.800,320.691 216.800 C 320.563 216.800,320.085 217.274,319.629 217.854 M70.600 218.635 L 69.400 219.666 70.700 218.806 C 71.415 218.333,72.000 217.868,72.000 217.773 C 72.000 217.473,71.831 217.578,70.600 218.635 M170.257 222.059 C 169.936 225.130,169.970 228.787,170.328 229.673 C 170.478 230.043,170.619 227.928,170.642 224.973 C 170.689 218.960,170.629 218.503,170.257 222.059 M293.646 220.067 C 293.621 220.434,293.496 221.064,293.370 221.467 C 293.152 222.162,293.163 222.163,293.597 221.487 C 293.848 221.096,293.973 220.466,293.873 220.087 C 293.711 219.468,293.688 219.466,293.646 220.067 M237.029 222.629 C 236.881 223.215,236.838 223.772,236.932 223.866 C 237.027 223.960,237.224 223.558,237.371 222.971 C 237.519 222.385,237.562 221.828,237.468 221.734 C 237.373 221.640,237.176 222.042,237.029 222.629 M319.232 222.310 C 319.214 222.590,319.662 222.995,320.226 223.210 C 321.517 223.701,321.708 223.699,321.400 223.200 C 321.264 222.980,320.818 222.800,320.410 222.800 C 320.001 222.800,319.576 222.575,319.465 222.300 C 319.306 221.907,319.256 221.909,319.232 222.310 M62.600 225.052 L 60.200 227.285 62.700 225.203 C 64.874 223.392,65.497 222.771,65.100 222.810 C 65.045 222.815,63.920 223.824,62.600 225.052 M239.647 226.633 C 239.673 227.935,239.831 229.540,239.997 230.200 C 240.164 230.861,240.208 229.872,240.094 228.000 C 239.855 224.040,239.579 223.196,239.647 226.633 M332.600 229.807 C 333.040 230.166,333.760 230.635,334.200 230.851 L 335.000 231.244 334.200 230.593 C 333.760 230.234,333.040 229.765,332.600 229.549 L 331.800 229.156 332.600 229.807 M286.606 237.088 L 285.904 238.200 286.830 237.311 C 287.339 236.822,287.655 236.322,287.532 236.199 C 287.409 236.076,286.992 236.476,286.606 237.088 M343.600 237.100 C 343.600 237.269,343.960 237.632,344.400 237.907 C 344.840 238.182,345.200 238.269,345.200 238.100 C 345.200 237.931,344.840 237.568,344.400 237.293 C 343.960 237.018,343.600 236.931,343.600 237.100 M283.785 240.500 L 281.800 242.600 283.900 240.615 C 285.055 239.523,286.000 238.578,286.000 238.515 C 286.000 238.217,285.629 238.549,283.785 240.500 M350.799 243.900 C 351.322 244.615,351.813 245.200,351.889 245.200 C 352.193 245.200,351.201 243.700,350.545 243.167 C 350.113 242.816,350.210 243.096,350.799 243.900 M225.385 245.300 L 223.400 247.400 225.500 245.415 C 226.655 244.323,227.600 243.378,227.600 243.315 C 227.600 243.017,227.229 243.349,225.385 245.300 M278.300 244.629 C 277.695 244.957,277.200 245.310,277.200 245.413 C 277.200 245.799,277.832 245.557,278.800 244.800 C 279.989 243.870,279.811 243.809,278.300 244.629 M221.441 248.427 C 220.583 249.072,220.050 249.600,220.256 249.600 C 220.462 249.600,221.253 249.067,222.015 248.416 C 223.787 246.902,223.461 246.908,221.441 248.427 M184.800 248.209 C 184.800 248.418,187.589 249.864,189.105 250.440 C 189.698 250.665,190.068 250.735,189.927 250.594 C 189.546 250.213,184.800 248.005,184.800 248.209 M260.716 248.697 C 262.099 248.775,264.259 248.774,265.516 248.695 C 266.772 248.616,265.640 248.552,263.000 248.553 C 260.360 248.553,259.332 248.618,260.716 248.697 M192.400 251.582 C 192.730 251.805,193.345 251.991,193.767 251.994 C 194.790 252.002,194.471 251.773,193.000 251.444 C 192.124 251.248,191.962 251.285,192.400 251.582 M51.049 253.015 C 50.912 253.373,50.815 253.966,50.834 254.333 C 50.853 254.700,51.027 254.469,51.221 253.820 C 51.598 252.558,51.465 251.933,51.049 253.015 M197.800 252.800 C 198.460 252.968,199.540 253.106,200.200 253.107 C 201.209 253.108,201.145 253.055,199.800 252.777 C 197.774 252.358,196.137 252.377,197.800 252.800 M210.400 252.806 C 209.978 253.082,210.215 253.123,211.200 252.942 C 212.925 252.625,213.251 252.398,211.967 252.406 C 211.435 252.409,210.730 252.589,210.400 252.806 M356.101 256.600 C 356.105 257.480,356.187 257.793,356.283 257.295 C 356.379 256.798,356.375 256.078,356.275 255.695 C 356.175 255.313,356.096 255.720,356.101 256.600 M356.467 259.650 C 356.430 260.447,356.311 261.707,356.201 262.450 L 356.003 263.800 356.423 262.460 C 356.654 261.723,356.774 260.463,356.689 259.660 L 356.534 258.200 356.467 259.650 M49.260 260.067 C 49.227 260.654,49.096 261.464,48.970 261.867 C 48.752 262.560,48.765 262.561,49.195 261.890 C 49.446 261.499,49.577 260.689,49.486 260.090 L 49.320 259.000 49.260 260.067 M48.493 264.400 C 48.493 265.170,48.575 265.485,48.676 265.100 C 48.776 264.715,48.776 264.085,48.676 263.700 C 48.575 263.315,48.493 263.630,48.493 264.400 M202.914 265.400 C 202.917 266.500,202.995 266.903,203.087 266.295 C 203.179 265.686,203.177 264.786,203.082 264.295 C 202.987 263.803,202.911 264.300,202.914 265.400 M201.515 269.442 C 200.919 270.409,200.511 271.200,200.610 271.200 C 200.893 271.200,202.935 268.001,202.759 267.834 C 202.671 267.752,202.112 268.475,201.515 269.442 M182.223 270.363 C 182.099 270.563,182.183 271.148,182.408 271.663 C 182.788 272.531,182.802 272.516,182.590 271.455 L 182.362 270.311 185.353 270.462 C 186.998 270.545,188.132 270.478,187.872 270.312 C 187.200 269.885,182.492 269.928,182.223 270.363 M182.800 273.015 C 182.800 273.458,186.594 277.590,187.000 277.589 C 187.234 277.588,187.219 277.466,186.964 277.294 C 186.724 277.132,185.689 276.049,184.664 274.887 C 183.639 273.724,182.800 272.882,182.800 273.015 M353.049 273.815 C 352.912 274.173,352.815 274.766,352.834 275.133 C 352.853 275.500,353.027 275.269,353.221 274.620 C 353.598 273.358,353.465 272.733,353.049 273.815 M52.128 276.200 C 52.474 276.860,53.227 277.940,53.801 278.600 C 54.469 279.369,54.320 279.010,53.386 277.600 C 51.659 274.994,51.265 274.555,52.128 276.200 M235.900 277.757 C 234.822 278.575,235.071 278.903,236.206 278.159 C 236.942 277.677,237.668 277.569,238.906 277.756 C 240.096 277.935,240.422 277.893,240.000 277.612 C 239.147 277.044,236.727 277.129,235.900 277.757 M191.200 279.594 C 191.530 279.811,192.235 279.991,192.767 279.994 C 194.051 280.002,193.725 279.775,192.000 279.458 C 191.015 279.277,190.778 279.318,191.200 279.594 M56.800 282.200 C 57.995 283.410,59.063 284.400,59.173 284.400 C 59.283 284.400,58.395 283.410,57.200 282.200 C 56.005 280.990,54.937 280.000,54.827 280.000 C 54.717 280.000,55.605 280.990,56.800 282.200 M202.404 282.142 C 203.435 283.326,206.502 285.600,207.065 285.600 C 207.241 285.600,206.669 285.125,205.793 284.545 C 204.917 283.965,203.572 282.930,202.804 282.245 C 201.470 281.055,201.452 281.051,202.404 282.142 M216.800 281.594 C 217.130 281.811,217.835 281.991,218.367 281.994 C 219.651 282.002,219.325 281.775,217.600 281.458 C 216.615 281.277,216.378 281.318,216.800 281.594 M227.400 281.600 C 226.293 281.882,226.277 281.909,227.200 281.947 C 227.750 281.969,228.470 281.813,228.800 281.600 C 229.481 281.160,229.129 281.160,227.400 281.600 M349.878 283.005 C 349.512 283.772,349.295 284.400,349.396 284.400 C 349.670 284.400,350.884 281.951,350.701 281.768 C 350.614 281.681,350.244 282.238,349.878 283.005 M61.800 286.565 C 62.460 287.132,63.165 287.597,63.367 287.598 C 63.801 287.600,63.796 287.596,62.000 286.437 L 60.600 285.534 61.800 286.565 M64.400 288.420 C 65.787 289.361,66.578 289.635,65.600 288.836 C 65.050 288.386,64.420 288.017,64.200 288.015 C 63.980 288.013,64.070 288.196,64.400 288.420 M218.137 288.894 C 218.747 289.281,226.299 289.287,226.537 288.900 C 226.639 288.735,224.686 288.600,222.198 288.600 C 219.710 288.600,217.882 288.732,218.137 288.894 M182.100 295.100 C 189.745 295.161,202.255 295.161,209.900 295.100 C 217.545 295.039,211.290 294.989,196.000 294.989 C 180.710 294.989,174.455 295.039,182.100 295.100 M245.800 295.620 C 249.980 295.772,255.920 295.887,259.000 295.876 L 264.600 295.857 257.400 295.578 C 253.440 295.425,247.500 295.310,244.200 295.322 L 238.200 295.345 245.800 295.620 M85.400 296.400 C 85.840 296.589,86.470 296.744,86.800 296.744 C 87.178 296.744,87.104 296.617,86.600 296.400 C 86.160 296.211,85.530 296.056,85.200 296.056 C 84.822 296.056,84.896 296.183,85.400 296.400 M153.200 296.395 C 152.791 296.655,153.110 296.699,154.200 296.532 C 156.177 296.229,156.514 295.998,154.967 296.006 C 154.325 296.009,153.530 296.184,153.200 296.395 M293.400 296.275 C 299.807 296.539,317.124 296.579,316.488 296.328 C 316.110 296.179,310.130 296.079,303.200 296.108 C 296.270 296.136,291.860 296.211,293.400 296.275 M333.200 296.400 C 332.376 296.664,332.341 296.726,333.000 296.754 C 333.440 296.773,334.070 296.613,334.400 296.400 C 335.101 295.947,334.614 295.947,333.200 296.400 M89.200 296.955 C 89.200 297.040,89.730 297.187,90.379 297.282 C 91.027 297.377,91.467 297.308,91.355 297.128 C 91.157 296.807,89.200 296.650,89.200 296.955 M143.400 297.185 C 142.930 297.378,143.673 297.426,145.200 297.302 C 146.630 297.187,147.875 297.026,147.967 296.946 C 148.304 296.651,144.174 296.867,143.400 297.185 M95.700 297.887 C 96.305 297.978,97.295 297.978,97.900 297.887 C 98.505 297.795,98.010 297.720,96.800 297.720 C 95.590 297.720,95.095 297.795,95.700 297.887 M112.200 298.000 L 99.000 298.216 111.400 298.259 C 118.220 298.283,126.320 298.176,129.400 298.021 L 135.000 297.739 130.200 297.761 C 127.560 297.773,119.460 297.881,112.200 298.000 M208.400 304.046 C 202.570 304.210,192.040 304.541,185.000 304.782 C 177.960 305.023,166.890 305.387,160.400 305.592 C 153.910 305.796,142.300 306.188,134.600 306.463 C 111.128 307.300,92.267 307.089,88.388 305.946 C 87.611 305.717,86.484 305.591,85.882 305.665 L 84.789 305.800 86.446 307.600 C 87.357 308.590,88.573 310.030,89.149 310.800 C 89.724 311.570,90.295 312.290,90.417 312.400 C 90.539 312.510,91.071 313.230,91.600 314.000 C 92.129 314.770,92.682 315.490,92.828 315.600 C 93.311 315.961,100.696 327.350,101.907 329.600 C 102.559 330.810,103.505 332.520,104.011 333.400 C 105.115 335.322,107.171 339.202,110.795 346.200 C 115.127 354.565,116.940 357.969,119.135 361.855 C 120.271 363.865,121.200 365.695,121.200 365.921 C 121.200 366.148,121.335 366.393,121.500 366.467 C 121.876 366.634,123.175 368.764,123.471 369.700 C 123.593 370.085,123.852 370.400,124.047 370.400 C 124.241 370.400,124.400 370.670,124.400 371.000 C 124.400 371.330,124.580 371.600,124.800 371.600 C 125.020 371.600,125.200 371.827,125.200 372.104 C 125.200 372.382,125.787 373.288,126.505 374.119 L 127.810 375.629 219.805 375.436 C 270.402 375.330,313.254 375.131,315.030 374.993 C 320.650 374.559,322.576 371.908,323.602 363.200 C 323.848 361.110,324.212 358.320,324.411 357.000 C 325.579 349.241,325.688 347.443,325.448 339.797 C 325.310 335.399,325.086 326.107,324.951 319.149 L 324.705 306.499 315.453 306.242 C 310.364 306.101,302.870 305.811,298.800 305.598 C 294.730 305.386,286.180 305.037,279.800 304.823 C 273.420 304.609,263.700 304.254,258.200 304.034 C 247.039 303.589,224.500 303.595,208.400 304.046 " stroke="none" fill="#d38b5c" fill-rule="evenodd"></path><path id="path3" d="M205.000 178.800 C 204.864 179.020,204.221 179.200,203.571 179.200 C 202.921 179.200,202.077 179.362,201.695 179.561 C 201.313 179.760,200.190 180.158,199.200 180.447 C 197.356 180.986,193.539 182.807,191.400 184.169 C 187.114 186.898,181.985 193.931,180.437 199.200 C 180.147 200.190,179.760 201.360,179.579 201.800 C 178.177 205.203,177.654 222.576,178.830 226.700 C 179.033 227.415,179.392 228.675,179.627 229.500 C 180.952 234.151,184.740 238.507,189.401 240.742 C 190.940 241.480,192.513 242.245,192.895 242.442 C 193.277 242.639,194.096 242.800,194.715 242.800 C 195.334 242.800,196.053 243.013,196.313 243.273 C 197.006 243.966,212.069 243.992,212.300 243.300 C 212.392 243.025,212.705 242.800,212.996 242.800 C 213.637 242.800,216.947 241.120,217.133 240.700 C 217.207 240.535,217.502 240.400,217.791 240.400 C 218.079 240.400,218.418 240.130,218.545 239.800 C 218.735 239.305,218.325 239.200,216.207 239.200 C 206.711 239.200,200.514 233.924,198.588 224.200 C 195.036 206.269,196.695 196.656,204.574 189.507 C 211.011 183.667,211.920 183.178,218.900 181.802 C 219.505 181.682,220.000 181.432,220.000 181.246 C 220.000 180.782,216.111 179.200,214.970 179.200 C 214.463 179.200,213.936 179.020,213.800 178.800 C 213.661 178.575,211.737 178.400,209.400 178.400 C 207.063 178.400,205.139 178.575,205.000 178.800 M264.800 179.675 C 264.250 179.906,263.440 180.230,263.000 180.394 C 261.712 180.875,259.817 181.780,259.600 182.019 C 259.490 182.140,258.770 182.676,258.000 183.211 C 251.551 187.688,248.283 195.682,247.048 210.000 C 245.351 229.688,250.143 239.000,261.972 239.000 C 267.875 239.000,272.058 237.803,268.913 237.014 C 265.386 236.129,258.400 230.789,258.400 228.978 C 258.400 228.697,258.265 228.407,258.100 228.333 C 257.809 228.204,256.828 226.284,255.377 223.002 C 252.985 217.596,253.107 205.927,255.619 199.800 C 255.800 199.360,256.175 198.325,256.454 197.500 C 256.733 196.675,257.105 196.000,257.280 196.000 C 257.456 196.000,257.600 195.807,257.600 195.572 C 257.600 193.747,262.765 188.498,266.200 186.831 C 270.514 184.739,272.112 184.332,277.156 184.040 L 281.313 183.800 280.037 182.556 C 276.955 179.549,268.775 178.002,264.800 179.675 " stroke="none" fill="#fbfbfb" fill-rule="evenodd"></path><path id="path4" d="M203.400 104.460 C 201.757 104.995,196.631 106.327,194.200 106.850 C 193.100 107.087,191.480 107.452,190.600 107.662 C 189.720 107.872,188.280 108.204,187.400 108.400 C 186.520 108.596,184.990 108.956,184.000 109.200 C 181.226 109.884,178.767 110.389,176.891 110.659 C 175.951 110.795,175.085 111.062,174.967 111.253 C 174.849 111.444,174.178 111.603,173.476 111.606 C 172.774 111.609,171.930 111.787,171.600 112.000 C 170.508 112.706,176.413 111.634,182.800 109.968 C 183.570 109.767,185.820 109.235,187.800 108.786 C 194.363 107.297,194.990 107.152,196.400 106.800 C 197.170 106.608,198.700 106.242,199.800 105.987 C 200.900 105.732,202.308 105.334,202.928 105.102 C 204.261 104.603,206.262 104.603,206.928 105.102 C 207.187 105.297,208.210 105.692,209.200 105.982 C 210.190 106.271,211.990 106.827,213.200 107.217 C 214.410 107.607,216.390 108.145,217.600 108.413 C 218.810 108.680,220.250 109.046,220.800 109.224 C 223.743 110.181,237.654 113.279,237.901 113.032 C 238.007 112.926,237.578 112.730,236.947 112.597 C 234.834 112.151,232.213 111.553,230.800 111.194 C 230.030 110.998,227.780 110.455,225.800 109.987 C 223.820 109.519,221.750 108.993,221.200 108.818 C 220.650 108.643,219.210 108.280,218.000 108.012 C 215.251 107.404,214.412 107.157,209.159 105.410 C 206.827 104.635,204.847 104.015,204.759 104.034 C 204.672 104.053,204.060 104.245,203.400 104.460 M166.400 113.122 C 164.970 113.468,164.070 113.811,164.400 113.885 C 164.730 113.958,166.350 113.669,168.000 113.243 C 169.650 112.817,170.550 112.474,170.000 112.481 C 169.450 112.488,167.830 112.776,166.400 113.122 M238.433 113.357 C 238.743 113.650,246.519 115.615,246.690 115.444 C 246.783 115.350,245.811 114.988,244.530 114.638 C 243.248 114.288,241.647 113.822,240.972 113.601 C 239.765 113.207,238.106 113.048,238.433 113.357 M160.800 114.400 L 159.800 114.720 160.800 114.720 C 161.350 114.720,162.250 114.576,162.800 114.400 L 163.800 114.080 162.800 114.080 C 162.250 114.080,161.350 114.224,160.800 114.400 M157.400 115.200 L 156.600 115.544 157.400 115.544 C 157.840 115.544,158.560 115.389,159.000 115.200 L 159.800 114.856 159.000 114.856 C 158.560 114.856,157.840 115.011,157.400 115.200 M151.466 117.191 C 143.755 120.568,138.518 126.409,137.829 132.400 L 137.622 134.200 138.171 132.085 C 140.095 124.681,146.487 118.638,154.750 116.414 C 155.657 116.169,156.400 115.886,156.400 115.785 C 156.400 115.293,154.678 115.783,151.466 117.191 M247.600 116.000 C 247.930 116.213,248.470 116.388,248.800 116.388 C 249.333 116.388,249.333 116.345,248.800 116.000 C 248.470 115.787,247.930 115.612,247.600 115.612 C 247.067 115.612,247.067 115.655,247.600 116.000 M250.000 116.800 C 250.330 117.013,250.870 117.188,251.200 117.188 C 251.733 117.188,251.733 117.145,251.200 116.800 C 250.870 116.587,250.330 116.412,250.000 116.412 C 249.467 116.412,249.467 116.455,250.000 116.800 M256.000 118.950 C 256.000 119.033,257.286 119.764,258.859 120.575 C 267.272 124.915,272.571 130.322,275.155 137.200 C 275.444 137.970,275.828 138.960,276.007 139.400 C 276.186 139.840,276.450 140.650,276.594 141.200 C 276.737 141.750,277.021 142.830,277.226 143.600 C 277.916 146.200,278.735 150.586,278.980 153.000 C 279.114 154.320,279.324 156.075,279.447 156.900 C 279.617 158.039,279.533 158.400,279.097 158.400 C 277.914 158.400,277.200 159.799,277.200 162.116 L 277.200 164.369 278.800 164.800 C 280.103 165.151,280.400 165.409,280.400 166.192 C 280.400 167.616,280.979 167.795,285.741 167.849 C 288.420 167.879,289.875 167.760,289.541 167.539 C 289.243 167.342,288.010 167.280,286.800 167.402 C 283.277 167.758,281.026 167.205,280.879 165.948 C 280.783 165.131,280.427 164.815,279.179 164.441 C 276.767 163.718,276.853 159.617,279.300 158.690 C 279.685 158.544,279.999 158.104,279.997 157.713 C 279.992 156.752,278.940 148.902,278.615 147.400 C 276.498 137.629,273.720 131.724,269.101 127.178 C 266.038 124.163,256.000 117.859,256.000 118.950 M137.158 139.090 C 136.828 145.748,137.059 145.559,130.448 144.569 C 128.778 144.318,125.904 144.901,125.020 145.670 C 124.811 145.851,124.411 146.000,124.130 146.000 C 121.176 146.000,105.545 155.095,100.972 159.475 C 98.350 161.985,98.818 161.710,102.600 158.515 C 110.010 152.256,126.422 144.294,130.498 144.981 C 131.434 145.139,132.785 145.362,133.499 145.477 C 136.938 146.033,137.723 144.613,137.524 138.200 L 137.400 134.200 137.158 139.090 M97.381 162.915 C 96.280 164.187,93.600 168.415,93.601 168.878 C 93.602 169.165,94.248 168.320,95.038 167.000 C 95.828 165.680,96.941 164.105,97.512 163.500 C 98.083 162.895,98.381 162.407,98.175 162.415 C 97.969 162.424,97.611 162.649,97.381 162.915 M292.400 168.962 C 292.400 169.052,293.795 169.799,295.500 170.623 C 302.289 173.906,309.841 180.121,312.970 185.000 C 316.000 189.723,316.401 190.409,316.417 190.891 C 316.433 191.387,317.950 194.398,317.983 194.000 C 318.234 190.971,310.164 179.930,304.400 175.415 C 301.560 173.191,292.400 168.265,292.400 168.962 M93.035 170.100 C 92.350 172.541,91.862 174.573,90.828 179.300 C 90.623 180.235,90.263 181.810,90.028 182.800 C 89.019 187.040,87.576 194.923,87.732 195.343 C 87.919 195.848,88.119 195.071,88.798 191.200 C 89.048 189.770,89.413 187.880,89.607 187.000 C 89.802 186.120,90.166 184.410,90.417 183.200 C 90.668 181.990,91.029 180.370,91.220 179.600 C 91.410 178.830,91.776 177.210,92.033 176.000 C 92.289 174.790,92.642 173.350,92.817 172.800 C 93.353 171.113,93.627 169.600,93.395 169.600 C 93.274 169.600,93.112 169.825,93.035 170.100 M204.400 170.000 C 203.605 170.514,204.604 170.514,205.800 170.000 L 206.600 169.656 205.800 169.634 C 205.360 169.622,204.730 169.787,204.400 170.000 M215.400 170.053 C 218.439 170.756,220.611 171.489,222.495 172.447 C 223.587 173.002,223.863 172.860,222.943 172.215 C 221.712 171.353,216.235 169.594,214.929 169.641 C 213.972 169.676,214.044 169.739,215.400 170.053 M265.800 170.000 C 264.695 170.475,266.351 170.488,268.600 170.023 L 270.200 169.692 268.400 169.674 C 267.410 169.664,266.240 169.811,265.800 170.000 M275.600 170.000 C 277.130 170.490,278.358 170.490,277.600 170.000 C 277.270 169.787,276.460 169.627,275.800 169.646 C 274.624 169.679,274.620 169.686,275.600 170.000 M198.999 171.733 C 189.037 175.838,178.431 187.644,175.402 198.000 C 174.872 199.816,175.837 198.299,176.803 195.800 C 177.313 194.480,177.863 193.220,178.024 193.000 C 178.185 192.780,178.813 191.700,179.420 190.600 C 184.736 180.968,192.007 174.536,201.173 171.358 C 202.618 170.857,203.440 170.440,203.000 170.431 C 202.560 170.422,200.760 171.008,198.999 171.733 M261.090 171.393 C 247.807 176.911,241.098 188.700,239.461 209.400 C 239.391 210.280,239.304 208.174,239.267 204.720 C 239.230 201.266,239.017 197.486,238.792 196.320 C 237.834 191.335,237.449 189.777,237.081 189.400 C 236.827 189.139,236.784 189.347,236.959 190.000 C 238.683 196.428,239.360 206.577,238.429 212.027 C 237.821 215.583,237.564 219.108,237.979 218.200 C 238.179 217.760,238.356 216.545,238.372 215.500 C 238.443 210.709,239.101 214.478,239.759 223.444 C 240.503 233.593,240.923 235.616,242.873 238.462 C 243.273 239.046,243.605 239.676,243.611 239.862 C 243.678 241.947,254.205 248.728,255.448 247.485 C 255.556 247.377,254.600 246.965,253.322 246.569 C 248.604 245.106,242.400 239.567,242.400 236.817 C 242.400 236.581,242.241 236.077,242.047 235.695 C 241.077 233.789,240.835 232.671,240.553 228.800 C 239.726 217.449,240.202 203.480,241.616 197.600 C 241.854 196.610,242.151 195.260,242.275 194.600 C 242.399 193.940,242.625 193.220,242.778 193.000 C 242.931 192.780,243.307 191.790,243.613 190.800 C 246.394 181.812,253.512 174.444,262.400 171.352 C 263.830 170.854,264.640 170.444,264.200 170.440 C 263.760 170.437,262.360 170.866,261.090 171.393 M280.630 171.594 C 285.814 174.206,291.037 180.372,292.966 186.157 C 293.105 186.574,293.323 186.810,293.450 186.683 C 293.778 186.355,291.909 182.400,290.247 179.904 C 287.389 175.610,282.424 171.438,279.200 170.622 C 278.650 170.483,279.294 170.921,280.630 171.594 M224.800 173.450 C 228.099 175.708,233.072 181.491,234.906 185.202 C 235.938 187.291,236.783 188.730,236.784 188.400 C 236.791 185.263,229.338 175.705,225.152 173.483 C 224.017 172.880,223.961 172.875,224.800 173.450 M203.862 178.300 C 203.760 178.465,206.315 178.604,209.539 178.608 C 219.131 178.621,224.303 181.293,217.145 182.538 C 212.955 183.266,210.373 184.683,205.897 188.711 C 198.676 195.208,197.386 198.360,197.423 209.400 C 197.445 215.803,197.607 217.338,199.048 224.800 C 200.718 233.439,206.260 238.254,215.053 238.703 C 219.440 238.927,219.728 239.077,218.308 240.400 C 214.853 243.619,205.931 245.291,199.120 243.997 C 193.336 242.898,192.771 242.723,188.400 240.679 C 184.872 239.029,181.599 235.298,179.732 230.800 C 179.230 229.590,178.815 228.924,178.809 229.319 C 178.801 229.985,179.417 231.406,180.872 234.074 C 182.213 236.531,187.752 241.594,189.105 241.598 C 189.383 241.599,189.923 241.759,190.305 241.953 C 199.226 246.491,213.492 245.561,219.106 240.075 L 220.600 238.615 216.000 238.348 C 202.841 237.586,198.027 230.007,197.865 209.800 C 197.779 198.964,198.757 196.270,204.996 190.158 C 209.652 185.596,213.174 183.479,216.871 183.017 C 222.363 182.332,222.349 180.632,216.834 178.836 C 214.220 177.985,204.309 177.575,203.862 178.300 M267.000 178.400 C 266.842 178.656,268.094 178.798,270.476 178.794 C 273.028 178.790,274.011 178.666,273.600 178.400 C 272.807 177.888,267.317 177.888,267.000 178.400 M200.200 179.263 C 199.540 179.483,198.749 179.743,198.443 179.841 C 198.136 179.939,197.958 180.091,198.046 180.179 C 198.134 180.268,199.375 180.006,200.803 179.598 C 202.231 179.191,202.950 178.858,202.400 178.860 C 201.850 178.862,200.860 179.043,200.200 179.263 M262.577 179.735 C 257.119 182.069,249.943 189.436,250.007 192.638 C 250.011 192.837,250.524 192.076,251.147 190.947 C 254.352 185.134,258.704 181.349,264.175 179.614 C 265.509 179.191,266.150 178.851,265.600 178.857 C 265.050 178.864,263.690 179.259,262.577 179.735 M276.600 179.940 C 278.804 180.986,281.600 183.299,281.600 184.076 C 281.600 184.254,279.755 184.403,277.500 184.406 C 275.245 184.409,273.193 184.544,272.939 184.706 C 272.686 184.868,274.801 185.000,277.639 185.000 C 280.478 185.000,282.800 184.867,282.800 184.705 C 282.800 183.436,276.442 178.799,274.704 178.800 C 274.427 178.800,275.280 179.313,276.600 179.940 M193.865 181.847 C 193.240 182.186,192.815 182.548,192.920 182.653 C 193.024 182.757,193.715 182.474,194.455 182.023 C 196.013 181.073,195.548 180.935,193.865 181.847 M189.729 184.536 C 187.289 186.332,184.058 189.852,183.243 191.600 L 182.777 192.600 183.466 191.600 C 184.315 190.369,190.286 184.452,191.624 183.518 C 192.161 183.143,192.485 182.828,192.344 182.818 C 192.203 182.808,191.027 183.581,189.729 184.536 M268.357 186.142 C 264.996 187.524,263.511 188.564,260.936 191.336 C 258.712 193.731,256.051 198.185,256.548 198.681 C 256.676 198.810,256.889 198.574,257.020 198.157 C 257.151 197.741,257.458 197.040,257.703 196.600 C 257.947 196.160,258.414 195.272,258.739 194.627 C 260.398 191.340,265.793 187.294,270.480 185.820 C 271.426 185.522,271.840 185.266,271.400 185.249 C 270.960 185.233,269.591 185.634,268.357 186.142 M293.811 188.400 C 293.931 189.170,294.243 190.970,294.505 192.400 C 295.329 196.909,294.968 209.399,293.799 216.800 C 293.385 219.424,292.717 222.598,292.411 223.400 C 292.243 223.840,291.700 225.460,291.205 227.000 C 288.511 235.379,282.156 243.168,276.243 245.341 C 275.826 245.494,275.588 245.721,275.713 245.846 C 277.352 247.485,287.342 237.367,290.005 231.370 C 291.327 228.393,291.507 227.933,292.029 226.200 C 292.295 225.320,292.659 224.150,292.840 223.600 C 295.628 215.099,296.371 195.412,294.156 188.706 C 293.639 187.143,293.610 187.117,293.811 188.400 M181.829 193.943 C 180.925 195.693,181.056 196.041,182.023 194.455 C 182.474 193.715,182.757 193.023,182.651 192.918 C 182.545 192.812,182.176 193.273,181.829 193.943 M248.600 196.000 C 248.450 196.473,248.417 196.950,248.527 197.060 C 248.637 197.170,248.850 196.873,249.000 196.400 C 249.150 195.927,249.183 195.450,249.073 195.340 C 248.963 195.230,248.750 195.527,248.600 196.000 M87.038 198.325 C 86.861 199.713,86.811 200.945,86.928 201.061 C 87.230 201.364,87.703 197.914,87.516 196.763 C 87.429 196.224,87.219 196.911,87.038 198.325 M180.304 197.257 C 180.005 197.996,179.532 199.410,179.253 200.400 C 178.974 201.390,178.578 202.753,178.373 203.428 C 178.168 204.104,178.025 205.364,178.054 206.228 C 178.090 207.254,178.165 207.453,178.271 206.800 C 178.705 204.113,179.699 200.149,180.400 198.303 C 181.260 196.040,181.174 195.105,180.304 197.257 M318.831 196.900 C 318.880 197.697,320.335 201.456,320.369 200.875 C 320.386 200.586,320.109 199.461,319.754 198.375 C 319.126 196.454,318.768 195.883,318.831 196.900 M247.778 198.978 C 247.627 199.781,247.594 200.527,247.704 200.637 C 247.814 200.747,248.027 200.181,248.178 199.378 C 248.328 198.575,248.362 197.828,248.252 197.718 C 248.142 197.608,247.928 198.175,247.778 198.978 M174.106 201.832 C 173.015 205.396,172.594 207.626,173.170 206.800 C 173.400 206.470,173.591 205.852,173.594 205.427 C 173.597 205.001,173.973 203.602,174.430 202.316 C 174.886 201.031,175.191 199.773,175.107 199.521 C 175.023 199.269,174.573 200.309,174.106 201.832 M255.800 200.000 C 255.650 200.473,255.617 200.950,255.727 201.060 C 255.837 201.170,256.050 200.873,256.200 200.400 C 256.350 199.927,256.383 199.450,256.273 199.340 C 256.163 199.230,255.950 199.527,255.800 200.000 M86.345 203.600 C 86.042 206.209,86.121 206.398,87.524 206.407 L 88.600 206.413 87.318 207.235 C 86.613 207.686,85.923 208.413,85.784 208.851 C 85.532 209.644,84.293 210.307,82.400 210.660 C 81.850 210.763,81.340 211.016,81.267 211.224 C 81.193 211.431,80.967 211.600,80.764 211.600 C 80.172 211.600,70.350 218.167,66.931 220.849 C 61.401 225.186,57.600 229.319,57.600 230.994 C 57.600 231.352,56.434 235.155,55.010 239.446 C 51.781 249.172,50.689 252.822,50.935 253.068 C 51.041 253.174,51.243 252.842,51.385 252.330 C 52.098 249.759,56.521 236.108,56.837 235.505 C 57.036 235.123,57.200 234.459,57.200 234.029 C 57.200 233.599,57.380 233.136,57.600 233.000 C 57.820 232.864,58.001 232.268,58.001 231.676 C 58.005 229.465,62.100 224.788,67.189 221.184 C 67.953 220.643,68.831 219.965,69.140 219.678 C 70.457 218.453,81.751 211.180,82.568 211.030 C 84.058 210.758,85.173 210.077,86.874 208.403 C 89.078 206.233,89.170 206.000,87.820 206.000 C 86.907 206.000,86.832 205.842,86.720 203.700 L 86.600 201.400 86.345 203.600 M247.049 202.215 C 246.912 202.573,246.818 203.346,246.840 203.933 C 246.873 204.791,246.952 204.695,247.246 203.440 C 247.622 201.839,247.495 201.053,247.049 202.215 M255.022 203.022 C 254.872 203.825,254.838 204.572,254.948 204.682 C 255.058 204.792,255.272 204.225,255.422 203.422 C 255.573 202.619,255.606 201.873,255.496 201.763 C 255.386 201.653,255.173 202.219,255.022 203.022 M320.651 202.791 C 321.038 204.924,321.916 207.496,321.960 206.628 C 322.000 205.863,321.417 203.735,320.747 202.200 C 320.508 201.651,320.478 201.837,320.651 202.791 M254.298 206.956 C 254.134 208.032,254.023 209.922,254.052 211.156 L 254.104 213.400 254.460 210.400 C 254.896 206.738,254.763 203.913,254.298 206.956 M246.294 207.400 C 246.137 208.280,246.032 210.620,246.061 212.600 L 246.113 216.200 246.460 211.800 C 246.836 207.039,246.753 204.823,246.294 207.400 M172.254 209.154 C 172.100 210.118,172.058 210.991,172.161 211.094 C 172.430 211.363,172.915 208.545,172.707 207.922 C 172.612 207.636,172.408 208.190,172.254 209.154 M322.238 209.000 C 322.570 210.984,322.802 211.304,322.794 209.767 C 322.791 209.125,322.604 208.330,322.379 208.000 C 322.086 207.570,322.046 207.854,322.238 209.000 M177.450 209.250 C 177.118 210.911,177.182 222.413,177.528 223.285 C 177.678 223.662,177.800 220.377,177.800 215.985 C 177.800 211.593,177.778 208.000,177.750 208.000 C 177.722 208.000,177.588 208.563,177.450 209.250 M323.044 212.958 C 323.189 214.035,323.329 215.190,323.354 215.523 C 323.381 215.882,322.897 216.264,322.167 216.459 C 321.490 216.640,320.590 217.196,320.167 217.694 C 319.406 218.593,319.406 218.595,320.200 217.951 C 320.640 217.593,321.665 217.088,322.478 216.827 L 323.957 216.352 323.724 214.276 C 323.597 213.134,323.332 211.930,323.136 211.600 C 322.917 211.231,322.882 211.753,323.044 212.958 M171.314 215.000 C 170.581 220.491,170.284 227.995,170.727 229.800 C 171.036 231.058,171.128 229.974,171.160 224.720 C 171.182 221.046,171.392 217.143,171.627 216.047 C 171.862 214.951,171.996 213.457,171.924 212.727 C 171.841 211.880,171.620 212.701,171.314 215.000 M254.093 215.400 C 254.094 216.280,254.232 217.540,254.400 218.200 L 254.705 219.400 254.730 218.200 C 254.743 217.540,254.605 216.280,254.423 215.400 L 254.092 213.800 254.093 215.400 M246.040 219.433 C 246.062 221.175,246.234 223.050,246.423 223.600 C 246.631 224.206,246.675 223.025,246.535 220.600 C 246.255 215.738,245.985 215.104,246.040 219.433 M319.309 220.400 C 319.309 221.390,319.387 221.795,319.482 221.300 C 319.578 220.805,319.578 219.995,319.482 219.500 C 319.387 219.005,319.309 219.410,319.309 220.400 M237.067 220.600 C 236.899 221.480,236.391 223.336,235.939 224.726 C 235.488 226.115,235.207 227.340,235.316 227.449 C 235.647 227.781,237.663 220.847,237.514 219.892 C 237.414 219.255,237.286 219.458,237.067 220.600 M254.812 220.200 C 254.812 220.640,254.987 221.270,255.200 221.600 C 255.521 222.097,255.588 222.062,255.588 221.400 C 255.588 220.960,255.413 220.330,255.200 220.000 C 254.879 219.503,254.812 219.538,254.812 220.200 M320.200 222.689 C 320.640 222.798,321.180 223.028,321.400 223.201 C 321.620 223.375,322.655 223.985,323.700 224.558 C 324.745 225.131,326.410 226.050,327.400 226.600 C 328.390 227.150,330.055 228.073,331.100 228.651 C 340.137 233.649,350.008 241.620,352.453 245.893 C 353.131 247.078,353.764 247.969,353.859 247.874 C 355.371 246.363,345.599 237.115,336.446 231.396 C 333.918 229.816,328.874 226.874,325.600 225.070 C 324.390 224.403,322.860 223.530,322.200 223.130 C 321.540 222.730,320.640 222.423,320.200 222.448 L 319.400 222.493 320.200 222.689 M178.006 225.833 C 178.009 226.695,178.197 227.670,178.423 228.000 C 178.714 228.426,178.755 228.020,178.565 226.600 C 178.231 224.103,177.998 223.784,178.006 225.833 M256.400 224.616 C 256.400 225.010,257.940 227.773,259.177 229.600 C 259.848 230.590,260.397 231.252,260.398 231.072 C 260.399 230.892,259.893 229.992,259.273 229.072 C 258.654 228.152,257.835 226.725,257.455 225.900 C 256.832 224.552,256.400 224.025,256.400 224.616 M246.806 225.833 C 246.809 226.475,246.996 227.270,247.221 227.600 C 247.514 228.030,247.554 227.746,247.362 226.600 C 247.030 224.616,246.798 224.296,246.806 225.833 M234.386 229.473 C 231.998 236.864,226.500 244.605,221.094 248.192 C 219.826 249.033,218.872 249.806,218.976 249.909 C 220.286 251.219,232.800 237.347,232.800 234.583 C 232.800 234.478,233.139 233.628,233.553 232.696 C 234.828 229.822,235.317 228.384,235.094 228.160 C 234.976 228.043,234.658 228.633,234.386 229.473 M247.628 228.888 C 247.536 231.128,252.797 238.428,254.474 238.387 C 254.790 238.380,254.681 238.143,254.200 237.794 C 251.456 235.801,249.457 233.089,248.180 229.622 C 247.892 228.840,247.644 228.510,247.628 228.888 M260.800 231.502 C 260.800 231.722,261.070 232.126,261.400 232.400 C 261.735 232.678,262.000 232.721,262.000 232.498 C 262.000 232.278,261.730 231.874,261.400 231.600 C 261.065 231.322,260.800 231.279,260.800 231.502 M171.233 231.922 C 170.998 235.674,179.741 245.443,186.289 248.745 C 189.762 250.497,190.002 250.299,186.599 248.489 C 181.226 245.633,174.278 238.841,172.798 235.000 C 171.962 232.830,171.262 231.453,171.233 231.922 M262.400 233.096 C 262.400 233.864,266.965 236.142,270.345 237.061 C 270.781 237.180,270.792 237.328,270.396 237.805 C 269.724 238.614,270.360 238.560,271.278 237.729 C 271.984 237.091,271.880 237.018,269.110 236.218 C 267.509 235.756,265.345 234.790,264.300 234.070 C 263.255 233.350,262.400 232.912,262.400 233.096 M268.200 238.800 C 267.429 239.131,267.431 239.145,268.276 239.172 C 268.758 239.187,269.264 239.020,269.400 238.800 C 269.692 238.327,269.301 238.327,268.200 238.800 M257.738 239.694 C 257.992 239.856,260.000 239.988,262.200 239.988 C 264.400 239.988,266.408 239.856,266.662 239.694 C 266.916 239.532,264.908 239.400,262.200 239.400 C 259.492 239.400,257.484 239.532,257.738 239.694 M272.200 246.818 C 270.597 247.393,268.769 247.552,263.000 247.615 C 255.191 247.701,255.033 248.278,262.800 248.346 C 267.453 248.387,271.430 247.793,274.001 246.674 C 275.925 245.837,274.650 245.938,272.200 246.818 M354.030 248.700 C 354.104 249.454,355.544 252.128,355.570 251.561 C 355.587 251.210,355.317 250.355,354.971 249.661 C 354.373 248.463,353.965 248.046,354.030 248.700 M189.800 250.274 C 190.305 250.768,193.609 251.724,193.879 251.454 C 193.990 251.343,193.331 251.051,192.415 250.804 C 191.499 250.557,190.446 250.249,190.075 250.119 C 189.631 249.963,189.537 250.016,189.800 250.274 M216.200 250.800 C 215.320 251.207,214.803 251.554,215.051 251.570 C 215.610 251.607,218.400 250.461,218.400 250.195 C 218.400 249.877,217.891 250.017,216.200 250.800 M195.000 251.980 C 195.761 252.326,198.717 252.564,198.367 252.251 C 198.275 252.169,197.300 251.993,196.200 251.859 C 194.854 251.695,194.461 251.735,195.000 251.980 M212.200 252.000 L 211.000 252.305 212.200 252.347 C 212.860 252.369,213.670 252.213,214.000 252.000 C 214.743 251.520,214.087 251.520,212.200 252.000 M200.200 252.823 C 202.434 253.285,209.675 253.269,210.400 252.800 C 210.800 252.541,208.935 252.426,204.800 252.452 C 200.418 252.480,199.069 252.589,200.200 252.823 M355.640 252.876 C 355.759 254.446,356.320 255.416,356.360 254.124 C 356.382 253.422,356.220 252.736,356.000 252.600 C 355.780 252.464,355.618 252.588,355.640 252.876 M50.288 254.133 C 49.810 255.349,49.924 256.373,50.439 255.487 C 50.667 255.096,50.791 254.466,50.715 254.087 C 50.588 253.460,50.551 253.464,50.288 254.133 M356.560 259.258 C 356.582 261.380,356.732 262.910,356.894 262.658 C 357.268 262.076,357.216 257.719,356.820 256.400 C 356.643 255.810,356.536 256.982,356.560 259.258 M49.400 257.600 C 49.248 258.291,49.214 258.947,49.324 259.057 C 49.434 259.167,49.648 258.691,49.800 258.000 C 49.952 257.309,49.986 256.653,49.876 256.543 C 49.766 256.433,49.552 256.909,49.400 257.600 M48.689 260.400 C 48.536 260.950,48.425 261.850,48.442 262.400 C 48.468 263.261,48.526 263.214,48.858 262.060 C 49.070 261.324,49.181 260.424,49.106 260.060 C 49.008 259.594,48.886 259.693,48.689 260.400 M203.122 265.602 C 202.781 270.319,199.546 273.365,195.131 273.123 C 193.663 273.043,192.549 273.117,192.655 273.289 C 193.034 273.903,198.157 273.567,199.383 272.848 C 201.743 271.464,204.288 266.586,203.741 264.495 C 203.259 262.652,208.740 263.638,210.148 265.647 C 211.693 267.854,210.172 272.588,207.067 275.234 L 205.854 276.267 208.099 277.925 C 210.667 279.822,213.534 281.399,213.847 281.086 C 213.964 280.969,213.642 280.741,213.130 280.580 C 212.289 280.315,207.982 277.571,207.000 276.673 C 206.742 276.438,207.105 275.779,208.025 274.816 C 213.167 269.433,211.701 263.200,205.294 263.200 L 203.296 263.200 203.122 265.602 M355.061 267.590 C 354.456 269.847,354.051 271.784,354.161 271.894 C 354.271 272.004,354.474 271.578,354.613 270.947 C 354.752 270.316,355.010 269.350,355.186 268.800 C 356.177 265.715,356.480 264.440,356.330 263.989 C 356.237 263.712,355.667 265.332,355.061 267.590 M48.406 267.033 C 48.409 267.895,48.597 268.870,48.823 269.200 C 49.114 269.626,49.155 269.220,48.965 267.800 C 48.631 265.303,48.398 264.984,48.406 267.033 M49.206 270.676 C 49.203 271.158,49.380 271.664,49.600 271.800 C 50.109 272.115,50.109 271.188,49.600 270.400 C 49.285 269.912,49.211 269.964,49.206 270.676 M182.539 270.986 C 182.683 271.360,182.800 271.915,182.800 272.219 C 182.800 275.730,191.597 280.427,197.200 279.907 C 198.890 279.750,198.858 279.736,196.677 279.670 C 190.400 279.481,183.200 275.202,183.200 271.660 C 183.200 270.355,187.387 270.579,189.953 272.022 C 190.854 272.528,191.682 272.852,191.793 272.741 C 191.904 272.630,191.141 272.108,190.097 271.581 C 187.609 270.324,182.120 269.892,182.539 270.986 M50.008 272.720 C 49.984 274.200,53.708 279.704,56.816 282.784 C 65.903 291.787,78.950 296.949,96.269 298.394 C 108.950 299.452,149.259 298.120,158.600 296.335 C 162.372 295.614,226.337 295.613,268.400 296.332 C 339.304 297.545,334.717 297.656,340.200 294.598 C 344.983 291.931,352.524 282.339,352.377 279.110 C 352.364 278.829,351.819 279.740,351.167 281.133 C 347.518 288.921,342.098 294.168,335.652 296.153 C 333.891 296.695,322.182 296.654,273.800 295.936 C 228.403 295.263,162.168 295.252,158.000 295.917 C 146.231 297.796,108.072 299.093,96.742 298.000 C 73.677 295.775,58.035 287.723,51.246 274.579 C 50.570 273.270,50.013 272.434,50.008 272.720 M353.429 273.829 C 353.281 274.415,353.251 274.984,353.361 275.094 C 353.471 275.204,353.681 274.815,353.829 274.229 C 353.976 273.642,354.006 273.073,353.896 272.963 C 353.786 272.853,353.576 273.242,353.429 273.829 M352.622 276.729 C 352.458 277.459,352.422 278.156,352.542 278.276 C 352.843 278.577,353.320 276.556,353.099 275.917 C 353.001 275.633,352.786 275.998,352.622 276.729 M236.020 278.251 C 235.481 278.640,234.131 279.473,233.020 280.103 C 231.909 280.733,231.450 281.124,232.000 280.971 C 232.550 280.819,233.914 280.091,235.031 279.354 C 237.040 278.028,237.095 278.017,240.414 278.273 L 243.767 278.531 241.215 280.878 C 234.987 286.607,230.608 288.132,220.944 287.938 C 216.418 287.847,214.286 287.931,214.728 288.183 C 216.272 289.064,228.002 288.672,230.800 287.647 C 235.692 285.855,238.277 284.274,241.900 280.858 C 244.462 278.442,244.517 278.000,242.256 278.000 C 241.297 278.000,239.722 277.898,238.756 277.773 C 237.444 277.603,236.752 277.724,236.020 278.251 M199.600 279.491 C 199.930 279.617,201.299 280.742,202.643 281.993 C 205.346 284.508,211.208 287.635,213.119 287.581 C 213.493 287.570,212.369 287.030,210.621 286.380 C 206.807 284.963,204.814 283.695,202.362 281.126 C 201.352 280.067,200.182 279.214,199.762 279.232 C 199.191 279.255,199.150 279.320,199.600 279.491 M215.800 281.781 C 216.896 282.163,219.102 282.323,222.800 282.291 L 228.200 282.243 222.600 281.969 C 219.520 281.818,216.370 281.589,215.600 281.459 C 214.216 281.226,214.218 281.230,215.800 281.781 M228.800 281.600 C 228.005 282.114,229.004 282.114,230.200 281.600 L 231.000 281.256 230.200 281.234 C 229.760 281.222,229.130 281.387,228.800 281.600 M209.000 303.576 C 207.020 303.699,217.808 303.800,232.974 303.800 C 248.140 303.800,260.020 303.686,259.374 303.547 C 257.938 303.238,214.017 303.263,209.000 303.576 M161.000 305.033 C 126.125 306.233,124.540 306.307,137.600 306.130 C 143.650 306.047,153.730 305.818,160.000 305.620 C 166.270 305.423,177.767 305.075,185.549 304.848 C 200.036 304.425,205.017 303.956,193.967 304.055 C 190.575 304.086,175.740 304.526,161.000 305.033 M265.260 304.173 C 265.402 304.327,271.612 304.639,279.060 304.868 C 286.507 305.097,295.570 305.434,299.200 305.616 C 302.830 305.799,310.054 306.074,315.253 306.227 L 324.706 306.505 324.951 319.152 C 325.086 326.109,325.310 335.399,325.448 339.797 C 325.688 347.443,325.579 349.241,324.411 357.000 C 324.212 358.320,323.848 361.110,323.602 363.200 C 322.576 371.908,320.650 374.559,315.030 374.993 C 313.254 375.131,270.402 375.330,219.805 375.436 L 127.810 375.629 126.505 374.119 C 125.787 373.288,125.200 372.382,125.200 372.104 C 125.200 371.827,125.020 371.600,124.800 371.600 C 124.580 371.600,124.400 371.345,124.400 371.033 C 124.400 370.722,124.265 370.407,124.100 370.333 C 123.724 370.166,122.425 368.036,122.129 367.100 C 122.007 366.715,121.748 366.400,121.553 366.400 C 121.359 366.400,121.200 366.200,121.200 365.955 C 121.200 365.710,120.271 363.865,119.135 361.855 C 116.940 357.969,115.127 354.565,110.795 346.200 C 107.171 339.202,105.115 335.322,104.011 333.400 C 103.505 332.520,102.559 330.810,101.907 329.600 C 100.696 327.350,93.311 315.961,92.828 315.600 C 92.682 315.490,92.129 314.770,91.600 314.000 C 91.071 313.230,90.539 312.510,90.417 312.400 C 90.295 312.290,89.724 311.570,89.149 310.800 C 88.573 310.030,87.357 308.590,86.446 307.600 L 84.791 305.800 86.178 305.677 C 86.942 305.609,87.922 305.744,88.357 305.977 C 88.792 306.210,90.374 306.373,91.874 306.340 C 93.373 306.307,94.060 306.219,93.400 306.145 C 92.740 306.071,90.351 305.712,88.090 305.348 C 83.094 304.543,82.960 304.642,85.452 307.296 C 87.964 309.969,91.357 314.261,93.599 317.600 C 94.559 319.030,95.492 320.260,95.672 320.333 C 95.853 320.407,96.000 320.642,96.000 320.855 C 96.000 321.069,96.706 322.283,97.568 323.553 C 98.431 324.823,99.490 326.478,99.923 327.231 C 104.084 334.474,105.815 337.641,109.197 344.200 C 118.141 361.545,122.001 368.491,125.424 373.400 L 127.097 375.800 157.049 376.106 C 199.332 376.539,307.584 376.126,313.939 375.508 L 318.878 375.027 320.788 372.937 C 321.838 371.788,322.819 370.342,322.967 369.724 C 323.115 369.106,323.410 367.880,323.622 367.000 C 323.835 366.120,324.175 363.960,324.379 362.200 C 324.582 360.440,324.985 357.290,325.274 355.200 C 325.879 350.830,325.917 332.534,325.355 316.400 L 325.000 306.200 316.800 305.938 C 312.290 305.795,303.470 305.396,297.200 305.052 C 283.429 304.297,264.901 303.787,265.260 304.173 M95.840 306.853 C 97.434 307.200,118.611 307.187,122.800 306.836 C 124.736 306.674,119.413 306.562,110.440 306.575 C 101.772 306.589,95.202 306.714,95.840 306.853 " stroke="none" fill="#7c5c5a" fill-rule="evenodd"></path></g></svg>