<?xml version="1.0" encoding="UTF-8" standalone="no"?>
<!-- Created with Inkscape (http://www.inkscape.org/) -->

<svg
   xmlns:dc="http://purl.org/dc/elements/1.1/"
   xmlns:cc="http://creativecommons.org/ns#"
   xmlns:rdf="http://www.w3.org/1999/02/22-rdf-syntax-ns#"
   xmlns:svg="http://www.w3.org/2000/svg"
   xmlns="http://www.w3.org/2000/svg"
   xmlns:sodipodi="http://sodipodi.sourceforge.net/DTD/sodipodi-0.dtd"
   xmlns:inkscape="http://www.inkscape.org/namespaces/inkscape"
   width="744.09448819"
   height="1052.3622047"
   id="svg2"
   version="1.1"
   inkscape:version="0.48.5 r10040"
   sodipodi:docname="New document 1">
  <defs
     id="defs4" />
  <sodipodi:namedview
     id="base"
     pagecolor="#ffffff"
     bordercolor="#666666"
     borderopacity="1.0"
     inkscape:pageopacity="0.0"
     inkscape:pageshadow="2"
     inkscape:zoom="0.24748737"
     inkscape:cx="11.654044"
     inkscape:cy="1032.489"
     inkscape:document-units="px"
     inkscape:current-layer="layer1"
     showgrid="false"
     inkscape:window-width="1088"
     inkscape:window-height="738"
     inkscape:window-x="2006"
     inkscape:window-y="150"
     inkscape:window-maximized="0" />
  <metadata
     id="metadata7">
    <rdf:RDF>
      <cc:Work
         rdf:about="">
        <dc:format>image/svg+xml</dc:format>
        <dc:type
           rdf:resource="http://purl.org/dc/dcmitype/StillImage" />
        <dc:title></dc:title>
      </cc:Work>
    </rdf:RDF>
  </metadata>
  <g
     inkscape:label="Layer 1"
     inkscape:groupmode="layer"
     id="layer1">
    <path
       sodipodi:nodetypes="ccc"
       inkscape:connector-curvature="0"
       id="path3783"
       d="m 278.39201,677.77833 c 12.50054,30.21214 45.00192,40.64905 67.50287,60.97357 l -15.00063,-62.6215"
       style="fill:#006680;fill-opacity:1;stroke:#000000;stroke-width:4.01876211;stroke-linecap:butt;stroke-linejoin:miter;stroke-miterlimit:4;stroke-opacity:1;stroke-dasharray:none" />
    <path
       style="fill:#006680;fill-opacity:1;stroke:#000000;stroke-width:3.03953719;stroke-linecap:butt;stroke-linejoin:miter;stroke-miterlimit:4;stroke-opacity:1;stroke-dasharray:none"
       d="m 529.88756,414.02524 c 16.09621,-17.21653 47.37588,-2.12573 70.29486,-7.62272 21.48842,-5.15389 40.14431,-26.92749 61.97876,-23.52584 15.14749,2.35986 30.80983,14.20047 35.99471,28.62727 5.1157,14.23432 -9.90191,74.31579 -9.40965,44.39072 -11.22677,-26.21823 -3.71791,-42.25528 -19.72369,-50.9294 -10.48389,-5.6816 -23.45964,4.39437 -35.00197,7.38892 -19.74207,5.12189 -39.83025,9.76096 -58.46064,18.06106 -16.84785,7.50595 -31.64637,37.80897 -47.49929,28.38167 -12.83785,-7.63432 -8.37371,-33.86109 1.82691,-44.77168 z"
       id="path3787"
       inkscape:connector-curvature="0"
       sodipodi:nodetypes="aaaacaaaaa" />
    <g
       id="g3800"
       transform="matrix(-0.85626276,0,0,0.85626276,462.53838,129.01775)">
      <path
         style="fill:#6f6f91;fill-opacity:1;stroke:#000000;stroke-width:4;stroke-miterlimit:4;stroke-opacity:1"
         d="m 420.22348,306.86961 c 0,16.73676 -19.41748,22.22336 -38.3858,22.22336 -18.96833,0 -34.34519,-13.56782 -34.34519,-30.30458 0,-8.36837 32.12849,-24.53081 58.54679,-70.92604 26.41831,-46.39523 26.92339,-137.165375 36.40755,-137.165375 9.48416,0 23.12122,72.587405 10.14358,121.002935 -12.97764,48.41553 -32.36693,86.80133 -32.36693,95.1697 z"
         id="path3802"
         inkscape:connector-curvature="0"
         sodipodi:nodetypes="sssssss" />
      <path
         style="fill:#9393ac;fill-opacity:1;stroke:none"
         d="m 434.05386,141.4599 c -7.08285,36.25437 -14.70233,77.67817 -32.60298,103.42509 -10.55593,16.17058 -22.2546,29.36251 -34.3372,41.70084 -3.74612,3.88357 -11.81869,11.14362 -11.18139,16.08627 1.95128,12.10779 10.62785,12.94553 18.42999,12.19559 5.43086,-0.0202 14.23727,0.9008 16.89814,-9.3478 2.99359,-10.70218 9.18192,-19.15264 13.40959,-29.00631 12.36156,-26.73613 28.61481,-53.73732 35.4998,-84.07617 4.92982,-21.83675 7.1518,-87.36946 3.83252,-97.125958 -3.31928,-9.756492 -8.35857,33.460268 -9.94847,46.148448 z"
         id="path3804"
         inkscape:connector-curvature="0"
         sodipodi:nodetypes="cccccccccc" />
    </g>
    <path
       sodipodi:type="arc"
       style="fill:#006680;fill-opacity:1;stroke:#000000;stroke-width:4;stroke-miterlimit:4;stroke-opacity:1;stroke-dasharray:none"
       id="path2985"
       sodipodi:cx="427.14285"
       sodipodi:cy="399.50504"
       sodipodi:rx="292.85715"
       sodipodi:ry="267.14285"
       d="m 720,399.50504 a 292.85715,267.14285 0 1 1 -585.71429,0 292.85715,267.14285 0 1 1 585.71429,0 z"
       transform="matrix(0.85626276,0,0,0.85626276,-70.53015,124.12482)" />
    <path
       style="fill:#0088aa;fill-opacity:1;stroke:none"
       d="m 266.71032,242.90483 c -62.80209,1.27502 -137.0318,41.08947 -174.93339,99.3464 -28.763869,43.28007 -47.659831,101.35906 -39.636822,155.17596 7.927648,56.45697 43.145607,108.31824 83.842082,140.21335 66.14643,53.07864 162.5023,19.98683 198.35153,-4.735 95.95081,-66.16821 92.53435,-84.91226 120.18066,-139.3152 30.3632,-59.74931 18.27935,-150.21273 -11.1065,-192.20289 -39.52653,-56.48041 -77.52824,-56.53815 -143.10486,-58.98079 -6.2967,-0.44829 -19.94635,0.0411 -33.5927,0.49817 z"
       id="path3777"
       inkscape:connector-curvature="0"
       sodipodi:nodetypes="ccccssscc" />
    <path
       style="fill:#006680;fill-opacity:1;stroke:#000000;stroke-width:3.42505097;stroke-linecap:butt;stroke-linejoin:miter;stroke-miterlimit:4;stroke-opacity:1;stroke-dasharray:none"
       d="m 179.95936,671.113 c 8.64957,31.71506 31.13843,42.67116 46.70763,64.00674 l -10.37947,-65.73665"
       id="path3781"
       inkscape:connector-curvature="0"
       sodipodi:nodetypes="ccc" />
    <path
       style="fill:#006680;fill-opacity:1;stroke:#000000;stroke-width:4.54261017;stroke-linecap:butt;stroke-linejoin:miter;stroke-miterlimit:4;stroke-opacity:1;stroke-dasharray:none"
       d="m 366.87944,646.84252 c 16.56813,29.1248 59.64526,39.18609 89.46788,58.77912 L 436.46557,645.2539"
       id="path3785"
       inkscape:connector-curvature="0"
       sodipodi:nodetypes="ccc" />
    <g
       id="g3796"
       transform="matrix(0.85626276,0,0,0.85626276,-36.27964,72.749058)">
      <path
         sodipodi:nodetypes="sssssss"
         inkscape:connector-curvature="0"
         id="path3789"
         d="m 420.22348,306.86961 c 0,16.73676 -19.41748,22.22336 -38.3858,22.22336 -18.96833,0 -34.34519,-13.56782 -34.34519,-30.30458 0,-8.36837 32.12849,-24.53081 58.54679,-70.92604 26.41831,-46.39523 26.92339,-137.165375 36.40755,-137.165375 9.48416,0 23.12122,72.587405 10.14358,121.002935 -12.97764,48.41553 -32.36693,86.80133 -32.36693,95.1697 z"
         style="fill:#6f6f91;fill-opacity:1;stroke:#000000;stroke-width:4;stroke-miterlimit:4;stroke-opacity:1" />
      <path
         sodipodi:nodetypes="cccccccccc"
         inkscape:connector-curvature="0"
         id="path3792"
         d="m 434.05386,141.4599 c -7.08285,36.25437 -14.70233,77.67817 -32.60298,103.42509 -10.55593,16.17058 -22.2546,29.36251 -34.3372,41.70084 -3.74612,3.88357 -11.81869,11.14362 -11.18139,16.08627 1.95128,12.10779 10.62785,12.94553 18.42999,12.19559 5.43086,-0.0202 14.23727,0.9008 16.89814,-9.3478 2.99359,-10.70218 9.18192,-19.15264 13.40959,-29.00631 12.36156,-26.73613 28.61481,-53.73732 35.4998,-84.07617 4.92982,-21.83675 7.1518,-87.36946 3.83252,-97.125958 -3.31928,-9.756492 -8.35857,33.460268 -9.94847,46.148448 z"
         style="fill:#9393ac;fill-opacity:1;stroke:none" />
    </g>
    <g
       id="g3869">
      <path
         sodipodi:nodetypes="sssss"
         inkscape:connector-curvature="0"
         id="path2987"
         d="m 296.36469,453.34415 c 0,61.99518 -100.82994,112.25221 -171.37054,112.25221 -70.540583,0 -84.079527,-50.25703 -84.079527,-112.25221 0,-61.99521 28.50312,-119.6615 99.043697,-119.6615 70.5406,0 156.40637,57.66629 156.40637,119.6615 z"
         style="fill:#5f8dd3;fill-opacity:1;stroke:#000000;stroke-width:3.42505097;stroke-miterlimit:4;stroke-opacity:1;stroke-dasharray:none" />
      <path
         inkscape:connector-curvature="0"
         id="path3758"
         d="m 128.63669,355.69007 c -25.73654,-0.24042 -51.918836,9.57411 -67.119949,28.06773 -23.384347,27.71128 -25.163092,64.08415 -21.227362,97.17071 2.470071,21.21891 10.839576,44.74572 33.370992,56.00475 24.615765,11.96529 55.003179,9.29716 81.606499,4.32701 38.48798,-8.19261 76.92965,-23.71147 103.22084,-50.27964 13.7658,-13.76328 21.18351,-33.117 15.41842,-51.05976 -8.14385,-27.27045 -33.22865,-47.85624 -59.93406,-62.16316 -25.72684,-13.42308 -55.14672,-22.22674 -85.33538,-22.06764 z"
         style="fill:#cccccc;fill-opacity:1;stroke:#000000;stroke-width:3.42505097000000000;stroke-miterlimit:4;stroke-opacity:1;stroke-dasharray:none" />
      <path
         inkscape:connector-curvature="0"
         id="path3865"
         d="m 120.9466,363.80473 c -25.815037,0.76558 -52.198332,12.80732 -65.235805,35.16971 -16.728001,27.10476 -16.291903,60.87539 -10.360442,91.01769 3.998921,18.23774 16.304477,35.52104 35.151241,41.38423 27.279316,9.10298 57.171116,4.42388 84.486346,-2.2518 32.77494,-8.74171 66.03968,-23.02121 88.27548,-48.97808 10.58253,-12.82708 13.91388,-31.26337 6.19024,-46.17657 -12.25567,-26.62087 -38.98934,-43.61589 -65.23581,-55.4119 -23.00541,-9.90683 -48.0311,-15.59102 -73.27125,-14.75328 z"
         style="opacity:0.5;fill:#ffffff;fill-opacity:1;stroke:none" />
      <path
         transform="matrix(0.81100676,0,0,0.83834061,-68.246772,88.811177)"
         d="m 247.14286,438.07648 a 44.285713,50 0 1 1 -88.57143,0 44.285713,50 0 1 1 88.57143,0 z"
         sodipodi:ry="50"
         sodipodi:rx="44.285713"
         sodipodi:cy="438.07648"
         sodipodi:cx="202.85715"
         id="path3762"
         style="fill:#37c8ab;fill-opacity:1;stroke:#000000;stroke-width:8.30757999;stroke-linecap:round;stroke-linejoin:round;stroke-miterlimit:4;stroke-opacity:1;stroke-dasharray:none;stroke-dashoffset:2.4"
         sodipodi:type="arc" />
      <path
         sodipodi:type="arc"
         style="opacity:0.1946903;fill:#4d4d4d;fill-opacity:1;stroke:none"
         id="path3863"
         sodipodi:cx="202.85715"
         sodipodi:cy="438.07648"
         sodipodi:rx="44.285713"
         sodipodi:ry="50"
         d="m 247.14286,438.07648 a 44.285713,50 0 1 1 -88.57143,0 44.285713,50 0 1 1 88.57143,0 z"
         transform="matrix(0.69003902,0,0,0.7406917,-46.207601,134.56356)" />
      <path
         d="m 116.42857,433.79074 a 2.8571429,3.5714285 0 1 1 -5.71429,0 2.8571429,3.5714285 0 1 1 5.71429,0 z"
         sodipodi:ry="3.5714285"
         sodipodi:rx="2.8571429"
         sodipodi:cy="433.79074"
         sodipodi:cx="113.57143"
         id="path3840"
         style="fill:#ffffff;fill-opacity:1;stroke:none"
         sodipodi:type="arc" />
    </g>
  </g>
</svg>
